<?xml version="1.0" standalone="no"?>
<!DOCTYPE svg PUBLIC "-//W3C//DTD SVG 1.1//EN" "http://www.w3.org/Graphics/SVG/1.1/DTD/svg11.dtd" >
<svg xmlns="http://www.w3.org/2000/svg">
<metadata></metadata>
<defs>
<font id="my_epic_selfie_demoregular" horiz-adv-x="1576" >
<font-face units-per-em="2048" ascent="1536" descent="-512" />
<missing-glyph horiz-adv-x="917" />
<glyph horiz-adv-x="0" />
<glyph unicode="&#xd;" horiz-adv-x="917" />
<glyph horiz-adv-x="0" />
<glyph horiz-adv-x="0" />
<glyph unicode=" "  horiz-adv-x="917" />
<glyph unicode="&#x09;" horiz-adv-x="917" />
<glyph unicode="&#xa0;" horiz-adv-x="917" />
<glyph unicode="!" horiz-adv-x="368" d="M61 1436q-2 43 28 73.5t71 32.5h4q41 0 70.5 -29.5t31.5 -70.5l29 -938q2 -43 -27.5 -74t-72.5 -33q-41 -2 -72 28t-33 71zM100 117q0 43 31 73.5t76 30.5q43 0 73.5 -30.5t30.5 -73.5q0 -45 -30.5 -76t-73.5 -31q-45 0 -76 31t-31 76z" />
<glyph unicode="&#x22;" horiz-adv-x="765" d="M74 731v541q0 53 31.5 79.5t70.5 26.5t71 -26.5t32 -79.5v-541q0 -53 -32 -79.5t-71 -26.5t-70.5 26.5t-31.5 79.5zM469 684v606q0 53 31.5 80t70.5 27t71 -27t32 -80v-606q0 -53 -32 -79.5t-71 -26.5t-70.5 26.5t-31.5 79.5z" />
<glyph unicode="#" horiz-adv-x="1478" d="M74 546q2 38 29.5 69.5t80.5 29.5l1012 -31q53 -2 77.5 -34.5t23.5 -70.5t-28.5 -69.5t-80.5 -29.5l-1012 30q-53 2 -78.5 35t-23.5 71zM102 925q-2 38 24 70.5t79 34.5l1087 -10q53 2 81 -30t29 -69.5t-23.5 -70.5t-78.5 -35l-1087 10q-53 -2 -81 30t-30 70zM252 217 l260 1069q12 51 50 69.5t75 9.5t62.5 -43t13.5 -85l-260 -1069q-12 -51 -50 -69.5t-75 -9.5t-62.5 43t-13.5 85zM754 156l250 1173q10 51 46.5 70.5t74.5 11.5t63.5 -40t15.5 -83l-250 -1173q-10 -51 -47 -70.5t-74.5 -12.5t-63.5 39.5t-15 84.5z" />
<glyph unicode="$" horiz-adv-x="1406" d="M66 297q-12 72 6 143.5t65 126.5q41 49 93.5 75t111.5 26q43 0 72.5 -30t29.5 -73t-29.5 -72.5t-72.5 -29.5q-29 0 -49 -27q-16 -20 -23.5 -47t-1.5 -55q6 -37 46 -67.5t103.5 -50t143.5 -28t170 -0.5q86 8 159 28t126 49.5t83.5 64.5t30.5 73q0 20 -13 48t-66 67 q-47 35 -113 66.5t-133 62.5q-72 35 -142.5 70t-130.5 76q-35 27 -62.5 53t-45.5 55q-49 74 -49 158q0 100 35.5 189t103.5 159q68 72 155 108.5t185 36.5q154 0 240 -77q88 -76 94 -195q6 -121 -70 -223q-41 -53 -95 -85t-118 -38q-43 -4 -76.5 22.5t-37.5 67.5t22.5 75 t69.5 38q23 2 42 15t32.5 31.5t20.5 41t5 45.5q-4 78 -129 78q-57 0 -107.5 -22.5t-87 -61.5t-58 -92.5t-21.5 -112.5q0 -31 27.5 -60.5t72.5 -58.5t99.5 -55.5t109.5 -50.5q76 -35 149.5 -70t132.5 -80q37 -29 65 -56.5t48 -60.5q51 -78 51 -164q0 -102 -61 -184 q-53 -72 -141 -123q-76 -45 -174.5 -72.5t-208.5 -37.5q-55 -6 -109 -6q-172 0 -307 47q-100 35 -170 98q-80 70 -98 172zM625 1767q-2 51 29.5 79t70.5 29t71.5 -24.5t34.5 -76.5l62 -2067q2 -53 -30 -79.5t-69.5 -27.5t-71.5 24.5t-36 78.5z" />
<glyph unicode="%" horiz-adv-x="1105" d="M102.5 71q-14.5 40 14.5 85l706 1175q27 45 69 51.5t74.5 -14t46 -59.5t-13.5 -84l-706 -1176q-29 -45 -70 -51t-73.5 13.5t-47 59.5zM113 1319q0 45 30.5 75.5t73.5 30.5q45 0 76 -30.5t31 -75.5q0 -43 -31 -74t-76 -31q-43 0 -73.5 31t-30.5 74zM803 121 q0 45 30.5 75.5t73.5 30.5q45 0 76 -30.5t31 -75.5q0 -43 -31 -74t-76 -31q-43 0 -73.5 31t-30.5 74z" />
<glyph unicode="&#x26;" horiz-adv-x="784" d="M41 647q-16 137 86 242q63 68 157.5 102.5t204.5 28.5q41 -2 70 -33t27 -74q-2 -41 -33 -70.5t-74 -25.5q-63 2 -117.5 -15.5t-87.5 -51.5q-10 -10 -18 -25.5t-12 -36.5q14 0 35.5 2t54.5 8q18 4 33.5 8.5t27.5 8.5q14 4 27 8q35 14 70.5 1t54.5 -46q18 -33 12 -70 t-35 -59q-2 0 -31.5 -26.5t-66.5 -67.5q-39 -43 -55.5 -71t-20.5 -42q37 -18 81 -16t82 12t63 22l26 13q37 23 77 10.5t62 -49.5q23 -37 10.5 -77t-49.5 -62q-4 -4 -46 -22.5t-103 -35.5q-33 -10 -64.5 -13t-62.5 -3q-111 0 -193 51q-84 49 -90 145q-6 80 54 172 q-41 6 -76 27q-70 45 -80 131zM186 1470q-2 41 28 73t71 34q43 2 73.5 -27.5t32.5 -72.5l12 -318q2 -43 -27.5 -73.5t-70.5 -32.5h-4q-41 0 -70.5 28.5t-31.5 69.5zM319 -39q-4 43 24 75t71 36q41 4 73.5 -22.5t36.5 -69.5l33 -367q4 -43 -23.5 -76t-70.5 -37h-8 q-41 0 -70 27t-33 67z" />
<glyph unicode="'" horiz-adv-x="378" d="M84 684v606q0 53 31.5 80t70.5 27t71 -27t32 -80v-606q0 -53 -32 -79.5t-71 -26.5t-70.5 26.5t-31.5 79.5z" />
<glyph unicode="(" horiz-adv-x="937" d="M53 543q18 227 94 424q66 168 166 303q49 68 93.5 114t74.5 74q23 20 60 48t67 38q41 12 79 -6t50 -59q14 -41 -3 -77t-56 -52q-6 -4 -26.5 -18.5t-49.5 -41t-63.5 -65.5t-71.5 -90q-31 -45 -64.5 -105.5t-63.5 -136.5t-51.5 -167t-29.5 -198q-25 -315 246 -485 q53 -33 104 -54.5t93 -33.5t68 -17l26 -6q41 -8 66.5 -41.5t19.5 -74.5q-6 -39 -35 -63.5t-66 -24.5q-10 0 -16 2q-4 0 -37 6t-84 22.5t-115.5 43t-132.5 69.5q-164 100 -250 248q-111 184 -92 424zM672 1350h2h-2z" />
<glyph unicode=")" horiz-adv-x="940" d="M57 -184q-6 41 19.5 74.5t66.5 41.5l26 6q26 5 68 17t93 33.5t104 54.5q270 170 246 485q-8 106 -29.5 197.5t-51.5 167.5t-63.5 136.5t-64.5 105.5q-37 51 -71.5 90t-63.5 65.5t-49.5 41t-26.5 18.5q-39 16 -56.5 52t-2.5 77q12 41 50 59t79 6q31 -10 67.5 -37.5 t59.5 -48.5q31 -29 74.5 -75t93.5 -113q100 -135 166 -303q76 -197 94 -424q18 -240 -92 -424q-86 -147 -250 -248q-68 -43 -132.5 -69.5t-115.5 -43t-85 -22.5t-36 -6q-6 -2 -16 -2q-37 0 -66 24.5t-35 63.5zM264 1350h2h-2z" />
<glyph unicode="*" horiz-adv-x="1040" d="M99.5 1094q-7.5 41 11 74.5t56.5 48t85 -10.5l633 -325q45 -25 53 -66t-10.5 -74.5t-57.5 -49t-84 10.5l-632 324q-47 27 -54.5 68zM103 681q-3 42 34 79l608 600q37 37 79 31.5t69 -33t30 -68.5t-34 -78l-608 -600q-37 -37 -79 -32.5t-69 32t-30 69.5zM401 1274 q0 53 31 79.5t70 26.5t71.5 -26.5t32.5 -79.5l17 -684q0 -53 -32 -80t-70 -27t-70.5 27t-32.5 80z" />
<glyph unicode="+" horiz-adv-x="1028" d="M54 653q-1 39 24.5 72t79.5 33l710 37q53 0 80 -32t28 -70t-24.5 -70.5t-79.5 -32.5l-710 -37q-53 0 -80 30.5t-28 69.5zM397 993q0 53 31 80t70 27t71.5 -26.5t32.5 -80.5l16 -684q0 -53 -31.5 -79.5t-69.5 -26.5t-70.5 26.5t-32.5 79.5z" />
<glyph unicode="," horiz-adv-x="403" d="M20 193q0 76 52.5 129t128.5 53t129 -53.5t53 -128.5l-10 -60l-86 -360q-12 -51 -49 -69.5t-75 -10.5t-63.5 41t-13.5 84l49 207q-51 18 -83 63.5t-32 104.5z" />
<glyph unicode="-" horiz-adv-x="909" d="M102 567q-2 39 23 72t78 37l495 26q53 2 82 -27.5t31 -68.5t-22.5 -72.5t-77.5 -35.5l-496 -27q-53 -4 -82 26.5t-31 69.5z" />
<glyph unicode="." horiz-adv-x="354" d="M72 100q0 45 30.5 76t73.5 31q45 0 76 -31t31 -76q0 -43 -31 -73.5t-76 -30.5q-43 0 -73.5 30.5t-30.5 73.5z" />
<glyph unicode="/" horiz-adv-x="999" d="M66.5 77q-15.5 38 11.5 85l663 1192q27 45 68 53t75 -10.5t49 -57.5t-11 -84l-664 -1192q-27 -47 -67.5 -54t-74.5 11.5t-49.5 56.5z" />
<glyph unicode="0" horiz-adv-x="1323" d="M72 621q-4 147 32.5 295.5t106.5 271.5q76 137 184 227q59 49 125 81t137 48q43 8 78 -15.5t43 -64.5q4 -20 2 -28q23 29 58.5 36t68.5 -12q131 -69 209 -184q76 -109 107 -244q29 -123 19.5 -259t-54.5 -269q-41 -119 -106.5 -218.5t-149.5 -168.5q-158 -131 -350 -131 q-47 0 -93 6q-207 37 -319 231q-47 80 -71.5 180.5t-26.5 217.5zM276 623q0 -176 70 -297q66 -113 178 -131q16 -4 29.5 -4.5t28.5 -0.5q78 0 142 34t116.5 88.5t90 122.5t62.5 136q33 92 43.5 196.5t-9 201t-72 179.5t-144.5 132q-29 16 -42 43t-11 55q-23 -29 -60 -35 q-57 -12 -104 -39.5t-86 -62.5t-67.5 -75t-49.5 -76q-57 -102 -87 -223.5t-28 -243.5z" />
<glyph unicode="1" horiz-adv-x="1134" d="M61 109q-2 43 27 73.5t72 32.5l342 12l-25 944l-239 -253q-29 -31 -71 -33t-73 26q-31 29 -33 72t27 74l412 436q47 49 110 27q29 -12 47.5 -38t18.5 -57l31 -1189l288 12q43 2 74 -28t33 -70q2 -43 -28 -74t-70 -33l-836 -33h-4q-41 0 -71 29t-32 70z" />
<glyph unicode="2" horiz-adv-x="1261" d="M63 987q0 59 28 136t77 151q55 88 124.5 148.5t145.5 86.5q109 39 221 2q109 -37 209 -157q80 -98 115 -246q29 -127 12 -274q-10 -96 -36.5 -192.5t-67.5 -188.5q10 -4 18.5 -7.5t18.5 -7.5q47 -23 86.5 -53.5t72.5 -69.5q74 -80 109 -196q14 -41 -5.5 -79t-60.5 -50 q-10 -4 -30 -4q-33 0 -60.5 18.5t-38.5 50.5q-53 170 -213 217q-47 -66 -97 -116t-103 -84q-154 -96 -307 -60q-72 18 -115 56q-59 53 -55 127q10 119 165 200q127 74 289 92q57 6 117 7q45 88 74.5 190t37 200.5t-13 187.5t-71.5 153q-39 47 -71 68.5t-58.5 27.5t-45 2 t-28.5 -6q-41 -16 -85 -55t-81 -99q-41 -59 -56.5 -108t-15.5 -68q0 -43 -30.5 -72.5t-71.5 -29.5q-43 0 -73 29.5t-30 72.5zM358 207q58 -4 119 37q8 6 16.5 12t18.5 12q-16 -4 -32.5 -9t-33.5 -9q-53 -20 -88 -43z" />
<glyph unicode="3" horiz-adv-x="1310" d="M74 240q-12 41 8 77.5t61 49.5q41 12 78 -8.5t49 -61.5q4 -10 37 -31.5t101 -42.5q72 -20 152.5 -24t158.5 6q51 8 106.5 25.5t101.5 50t77.5 84t35.5 127.5q6 70 -11 99.5t-36 43.5q-39 29 -109.5 37t-164.5 -2q-47 -4 -88 -13.5t-74 -17.5q-8 -4 -16.5 -6t-16.5 -6 q-10 -4 -18 -6.5t-14 -4.5t-15 -2q-37 -8 -64.5 6.5t-41.5 34.5q-18 29 -18.5 62t22.5 59q16 20 37.5 30.5t72.5 24.5q2 0 3 1.5t4 1.5q90 39 176 124q51 51 84.5 105.5t46.5 101.5q10 47 -1.5 73t-27.5 42q-84 80 -268 -6q-41 -20 -78 -43t-63.5 -42.5t-42.5 -32.5l-17 -13 q-33 -29 -74 -26t-69 36q-29 33 -26 75t34 70q2 2 21.5 18.5t53 40t77.5 50.5t96 51q131 63 239 66q156 6 260 -99q61 -59 84 -139t0 -170q-16 -61 -47.5 -121.5t-79.5 -115.5q95 -6 158 -33q117 -45 172 -140.5t45 -230.5q-16 -219 -184 -350q-66 -51 -154 -84t-192 -43 q-49 -6 -105 -6q-90 0 -178 16.5t-161.5 47t-126 76.5t-70.5 108z" />
<glyph unicode="4" horiz-adv-x="1144" d="M29 606l374 805q18 39 57.5 52.5t78.5 -3.5q39 -18 53 -58t-2 -79l-295 -633l530 74l19 670q2 41 31.5 70.5t72.5 29.5q43 -2 73 -33t28 -74l-35 -1335q-2 -41 -32 -70.5t-71 -29.5h-2q-43 2 -72.5 32.5t-27.5 71.5l12 459l-686 -94q-4 0 -6 -1t-6 -1q-51 0 -84 43 q-37 47 -10 104z" />
<glyph unicode="5" horiz-adv-x="1333" d="M59 119q12 41 49 60.5t78 6.5q98 -29 206 -39t216 3q109 12 198 43.5t150 80.5q119 94 111 240q-6 82 -68 131q-117 94 -391 105q-55 2 -104 0t-86 -5.5t-60 -5.5l-22 -2q-57 -6 -92 37q-16 20 -22.5 46t3.5 52l176 527q16 53 74 67l432 101q41 10 77 -12.5t46 -63.5 t-13.5 -77t-64.5 -46l-374 -88l-111 -326q33 0 68.5 1t74.5 -1q346 -12 518 -149q64 -53 99 -119q39 -68 45 -160q8 -123 -40 -228t-149 -185q-86 -66 -199.5 -109t-252.5 -57q-35 -4 -71 -6t-71 -2q-94 0 -185 13t-177 38q-41 12 -60.5 50t-7.5 79z" />
<glyph unicode="6" horiz-adv-x="1159" d="M59 549q2 184 78 383q63 158 162 307q43 63 84 116.5t72.5 90.5t52 57.5l22.5 22.5q31 29 74 28.5t72 -30.5q29 -31 29 -74t-31 -72l-18 -18q-19 -19 -47.5 -51.5t-65.5 -80.5t-76 -106q-35 -53 -70 -117.5t-64.5 -138t-48 -154.5t-20.5 -165q-2 -86 20.5 -150.5 t57.5 -111.5q6 106 59 190q70 104 191 154q61 23 128.5 29.5t133.5 -3.5q72 -12 130 -43.5t93 -79.5q55 -74 45 -165q-6 -84 -75 -177q-59 -78 -134 -131t-161 -79q-78 -25 -158 -25q-90 0 -172 31q-80 29 -147.5 80t-114.5 122q-104 154 -101 361zM539 166q80 -14 173 16.5 t173 132.5q16 23 28.5 50.5t-0.5 44.5q-10 12 -32.5 24t-59.5 19q-39 6 -79 3t-74 -18q-137 -55 -119 -219q2 -27 -10 -53z" />
<glyph unicode="7" horiz-adv-x="1097" d="M51 1356q-2 43 26.5 73.5t72.5 34.5l808 43q57 4 91 -43q33 -49 10 -100l-572 -1311q-12 -29 -37.5 -45t-56.5 -16q-10 0 -19 2t-20 6q-41 16 -55 56t2 79l504 1159l-645 -34q-43 -4 -74 24.5t-35 71.5z" />
<glyph unicode="8" horiz-adv-x="1228" d="M82 1186q16 141 158 241q113 80 274 113q78 16 157 16t146 -14q176 -41 244 -162q16 -31 12 -63.5t-26 -56.5q29 -16 42 -47t5 -66q-23 -84 -83.5 -142.5t-138.5 -109.5q23 -12 42.5 -24.5t37.5 -26.5q102 -70 152 -158q61 -109 47 -233q-16 -156 -125 -271 q-94 -96 -240 -147q-121 -43 -247 -43q-18 0 -37 1t-35 3q-180 18 -277 119q-18 18 -38.5 49t-33 74t-10 98t28.5 123q76 199 246 350q12 10 25.5 22.5t27.5 22.5q-59 23 -112.5 44.5t-98.5 47.5q-70 45 -104 90q-49 68 -39 150zM285 1161q2 -4 14 -17t55 -36 q41 -20 95.5 -40.5t113.5 -43.5q20 -8 40 -14t42 -15q14 6 27 17q80 47 145.5 93t77.5 93q6 25 25 43q-23 14 -37 37q-12 25 -45 41t-77 24.5t-98.5 7.5t-109.5 -12q-109 -23 -185.5 -72.5t-82.5 -105.5zM316.5 295q11.5 -27 21.5 -37q20 -23 60 -38t90.5 -20t109.5 1 t121 26q25 8 60.5 26.5t71.5 47.5t63.5 72t33.5 100q10 102 -67.5 168t-214.5 125q-102 -66 -193.5 -155t-144.5 -226q-23 -63 -11.5 -90z" />
<glyph unicode="9" horiz-adv-x="1142" d="M29 1022q31 188 157 305q109 102 273 131q78 14 160.5 8t156.5 -34q31 -10 66 -29l4 90q0 43 30.5 72.5t73.5 27.5t72 -32.5t29 -73.5l-43 -1399q-2 -41 -32 -69.5t-71 -28.5h-2q-43 2 -72.5 32.5t-27.5 71.5l14 481q-53 -16 -101 -23t-71 -9q-43 -6 -104 -6 q-72 0 -155 13t-161 54q-111 57 -164 160q-57 115 -32 258zM231 989q-25 -147 88 -203q53 -29 132 -40t172 -1q75 9 145 29q23 8 35 14.5t20 10.5l13 348q-20 31 -57.5 55.5t-83.5 39.5t-98 19.5t-103 -4.5q-31 -6 -72 -20t-79 -45t-68.5 -80t-43.5 -123z" />
<glyph unicode=":" horiz-adv-x="374" d="M80 100q0 45 30.5 76t73.5 31q45 0 76 -31t31 -76q0 -43 -31 -73.5t-76 -30.5q-43 0 -73.5 30.5t-30.5 73.5zM80 797q0 45 30.5 75.5t73.5 30.5q45 0 76 -30.5t31 -75.5q0 -43 -31 -74t-76 -31q-43 0 -73.5 31t-30.5 74z" />
<glyph unicode=";" horiz-adv-x="434" d="M39 193q0 76 52 129t128 53t129 -53.5t53 -128.5l-10 -60l-86 -360q-12 -51 -49 -69.5t-75 -10.5t-63.5 41t-13.5 84l50 207q-51 18 -83 63.5t-32 104.5zM98 797q0 45 31 75.5t74 30.5q45 0 75.5 -30.5t30.5 -75.5q0 -43 -30.5 -74t-75.5 -31q-43 0 -74 31t-31 74z" />
<glyph unicode="&#x3c;" horiz-adv-x="1062" d="M39 636q-10 58 53 105l576 443q43 33 83 22.5t62.5 -41t21.5 -71.5t-44 -74l-449 -344l578 -242q45 -27 51 -67.5t-14.5 -73.5t-59.5 -47.5t-84 12.5l-690 289q-74 31 -84 89z" />
<glyph unicode="=" horiz-adv-x="1249" d="M112 496q-1 39 24.5 71.5t78.5 32.5l821 23q53 0 80 -32t28 -70t-24.5 -70.5t-79.5 -32.5l-821 -23q-53 0 -79.5 31t-27.5 70zM134 884q-1 38 24.5 70.5t79.5 34.5l731 19q53 2 79.5 -30t27.5 -70t-24.5 -70.5t-78.5 -34.5l-731 -19q-53 -2 -80 30t-28 70z" />
<glyph unicode="&#x3e;" horiz-adv-x="1062" d="M90 1089.5q-6 40.5 13.5 73.5t59.5 47.5t85 -12.5l690 -289q74 -31 84 -89t-53 -105l-576 -443q-43 -33 -83 -23.5t-63.5 40t-21.5 72.5t45 75l449 344l-578 242q-45 27 -51 67.5z" />
<glyph unicode="?" horiz-adv-x="954" d="M34 1064.5q9 65.5 38 135.5t70.5 129.5t95.5 104.5q98 82 211.5 102t232.5 -23q160 -59 207 -213q37 -121 -15 -299q-37 -127 -118 -280q-35 -63 -70 -118.5t-62.5 -97.5t-45 -66.5t-19.5 -26.5q-31 -41 -82 -41q-33 0 -61 22q-35 25 -40 67t21 77q27 37 58 81 q27 39 57.5 90.5t62.5 110.5q72 133 103 240q33 117 14 184q-6 20 -22.5 41t-59.5 37q-131 49 -239 -43q-70 -59 -111 -156q-18 -47 -23.5 -82.5t-0.5 -56.5q8 -41 -16.5 -76t-65.5 -43t-76 16.5t-43 65.5q-10 53 -1 118.5zM356 117q0 -45 31 -76t76 -31q43 0 73.5 31 t30.5 76q0 43 -30.5 73.5t-73.5 30.5q-45 0 -76 -30.5t-31 -73.5z" />
<glyph unicode="@" horiz-adv-x="1331" d="M78 774q16 160 75.5 306.5t151.5 250.5q57 66 128 108t151 62q156 37 305 -14q76 -25 139.5 -71t112.5 -107q104 -139 116 -320q12 -184 -36 -295q-33 -78 -79 -109.5t-85 -41.5q-94 -25 -197 28q-18 -35 -37 -57q-76 -92 -182 -98h-16q-86 0 -151.5 53t-88.5 143 q-16 68 -12 139.5t33 137.5q29 68 71.5 117t95.5 71q76 31 150 2t119 -104q18 -29 16 -60.5t-22 -56.5q23 -6 40 -20.5t27 -36.5q12 -23 49 -45q35 -20 54 -15q10 2 16 12.5t10 20.5q10 23 18.5 70t2.5 133q-8 115 -68.5 199t-163.5 118q-98 35 -194.5 7.5t-167.5 -105.5 q-70 -78 -117 -196.5t-59 -245.5q-14 -135 15.5 -246t94.5 -182q59 -66 144.5 -95.5t175.5 -17.5q23 2 53.5 11t63 27.5t63.5 47.5t53 74q20 39 60.5 51t78.5 -8q37 -18 50.5 -59.5t-7.5 -77.5q-57 -111 -158.5 -181.5t-230.5 -87.5q-36 -6 -75 -6q-47 0 -95.5 8t-95.5 25 q-135 47 -231 149q-104 113 -144 277q-37 141 -20 311zM580 756q-7 -49 4 -92q4 -20 16 -33t27 -10q23 2 47 37.5t35 111.5q2 29 22 51q-41 10 -63 47q-9 15 -17 19q-4 -2 -15 -11.5t-24 -29.5q-25 -41 -32 -90z" />
<glyph unicode="A" horiz-adv-x="1673" d="M74 365q-3 13 -3 26q0 27 14 51q21 36 62 47l113 31v41t2 43q6 129 18.5 239.5t34.5 205.5q59 252 170 378q51 61 119 97q74 39 154 41h19q82 0 157 -31q39 -16 73.5 -40t65.5 -56q186 -190 254 -639l160 41q13 3 26 3q27 -1 52 -15q37 -22 47 -62q3 -13 3 -26 q-1 -27 -15 -52q-22 -37 -62 -47l-186 -49q10 -109 13 -206t3 -171t-2 -119t-2 -49q-2 -41 -31.5 -68.5t-70.5 -27.5h-7q-41 5 -69 35q-27 28 -27 67v6l2 39t2 104.5t-2 152.5t-10 186l-688 -181q4 -119 9 -194.5t5 -77.5q1 -5 1 -11q0 -37 -24 -65q-28 -32 -69 -37 q-5 -1 -11 -1q-37 0 -65 25q-33 28 -37 71q0 4 -4 68.5t-8 168.5l-61 -14q-8 -4 -25 -4q-35 0 -62.5 20.5t-37.5 55.5zM465 573l663 172q-10 72 -23 134.5t-30 119.5q-59 205 -147 293q-66 68 -157 68h-5q-70 -2 -127 -66q-78 -92 -123 -290q-39 -172 -49 -408q0 -16 -2 -23 z" />
<glyph unicode="B" horiz-adv-x="1415" d="M104 1364v5q0 37 27 67q29 32 72 34h5q38 0 68 -28q32 -30 33 -70l4 -143q141 123 287 184q127 56 234 55q62 0 116 -18q68 -20 113 -74q45 -55 51 -127q2 -14 2 -29q0 -58 -26 -122q-32 -80 -103 -164q-74 -86 -180 -168q61 -14 118.5 -31.5t108.5 -40.5 q213 -98 291 -252q34 -69 34 -137q0 -13 -1 -27q-8 -82 -62 -153q-106 -139 -358 -182q-49 -8 -104.5 -12.5t-114.5 -4.5q-162 0 -354 31l4 -119v-5q0 -41 -28 -69q-30 -30 -71 -32h-4q-41 0 -70.5 28.5t-31.5 69.5zM326 958l30 -790q162 -29 300 -35q35 -2 68 -1 q98 0 179 13q113 18 164.5 50t67.5 55q10 16 17 40q2 7 2 14q0 20 -13 48q-45 88 -191 156q-180 78 -440 82q-35 0 -61.5 21.5t-36.5 54.5q-4 15 -4 29q0 19 8 37q14 32 43 48q123 72 217 144.5t153 142.5q49 55 66.5 97t15.5 65q-2 6 -5 13t-21 15q-7 3 -23 5q-12 2 -28 1 h-14q-26 -1 -60.5 -9.5t-79.5 -28.5q-57 -25 -144 -82.5t-192 -169.5q-6 -6 -18 -15z" />
<glyph unicode="C" horiz-adv-x="1394" d="M76 553q12 154 67 309q59 164 152.5 302.5t210.5 230.5q154 123 321 141q32 4 63 4q157 0 304 -96q37 -23 46 -65q3 -12 3 -24q0 -28 -16 -52q-23 -35 -65 -45q-12 -3 -24 -2q-28 0 -53 16q-99 62 -199 62q-126 0 -253 -99q-92 -74 -170 -189.5t-127 -250.5 q-48 -133 -56 -256q-2 -26 -1 -51q0 -91 24 -160q57 -166 262 -166q223 2 412 274q37 53 64.5 105.5t46 92.5t28.5 66l10 25q14 41 51 59q21 10 43 10q17 0 35 -6q41 -14 59 -51q11 -21 11 -43q0 -17 -6 -35q0 -4 -11.5 -33.5t-33 -76.5t-54 -106.5t-75.5 -123.5 q-104 -152 -230 -241q-164 -119 -348 -121h-6q-166 0 -289 82q-111 78 -161 219q-37 104 -37 230q0 32 2 65z" />
<glyph unicode="D" horiz-adv-x="1949" d="M57 1085q-6 17 -6 34q-1 23 11 45q20 38 61 50q123 39 235.5 69t221.5 52v127q0 43 30.5 73t71.5 30q43 0 72.5 -30t29.5 -73v-94q112 14 210 18q33 1 64 1q64 0 126 -5q199 -14 349.5 -76.5t242.5 -168.5q104 -123 116 -281q2 -20 1 -41q0 -127 -64 -258 q-66 -131 -185.5 -241.5t-281.5 -188.5q-86 -41 -181.5 -70.5t-197.5 -48.5q-98 -18 -199 -24v-35q0 -43 -29.5 -73t-72.5 -30q-41 0 -71.5 30t-30.5 73v31q-16 0 -30.5 1t-31.5 1q-44 4 -72 36q-25 28 -24 62v10q2 44 34 72q28 25 64 24h10q12 0 24.5 -1t25.5 -1v942 q-92 -20 -190.5 -45.5t-203.5 -60.5q-16 -5 -32 -5q-24 0 -46 11q-38 18 -51 59zM784 188q274 23 490 123q131 63 227.5 149.5t145.5 186.5q14 29 27.5 70t15.5 88v11q0 42 -12 87q-14 51 -58 101q-133 152 -453 174q-54 4 -111 4q-128 0 -272 -19v-975z" />
<glyph unicode="E" horiz-adv-x="1454" d="M86 1350q-1 6 -1 11q-1 37 23 65q26 32 70 36l998 94q5 1 11 1q37 -1 65 -25q32 -28 36 -68q1 -5 1 -11q-1 -37 -25 -65q-28 -32 -68 -36l-745 -70l10 -524l590 84q8 1 15 1q32 -1 60 -21q34 -26 39 -66q1 -8 1 -15q0 -32 -20 -61q-26 -35 -67 -41l-614 -88l8 -428 l801 63q5 1 10 1q36 -1 64 -25q32 -28 36 -70v-10q0 -36 -24 -64q-28 -32 -70 -36l-1073 -84h-8q-41 0 -69.5 26.5t-33.5 67.5v11q0 35 24 63q28 32 71 36l67 4l-8 416q-6 -2 -14 -2q-39 0 -67.5 24.5t-35.5 63.5q-1 8 -1 15q0 32 20 61q26 35 69 41l25 4l-8 533l-51 -5h-11 q-39 0 -67.5 26t-32.5 67z" />
<glyph unicode="F" horiz-adv-x="1505" d="M66 496q-2 11 -2 21q0 29 18 55q24 34 68 42l188 33l-21 563l-24 -2h-8q-41 0 -70 26t-33 66q-1 5 -1 11q1 36 25 65q28 33 70 37l1092 94q5 1 10 1q35 0 64 -24q33 -28 37 -71q1 -5 1 -10q0 -35 -25 -63q-28 -32 -71 -37l-862 -74l21 -547l657 111q10 2 19 2 q30 1 57 -19q35 -26 43 -67q1 -8 1 -16q0 -32 -20 -60q-24 -35 -65 -43l-684 -115l14 -416v-5q1 -40 -27 -68q-30 -30 -71 -33h-4q-41 0 -71 28.5t-32 69.5l-14 389l-164 -26q-6 -2 -16 -2q-37 0 -65.5 23.5t-34.5 60.5z" />
<glyph unicode="G" horiz-adv-x="1511" d="M82 592q2 78 14.5 158.5t34.5 160.5q47 160 129 297q88 150 201 234q137 111 289 119q17 1 34 1q151 0 297 -94q35 -23 45 -64q2 -13 2 -24q0 -28 -16 -53q-23 -37 -64 -45q-12 -2 -22 -2q-29 0 -55 16q-95 61 -186 61q-101 0 -197 -75q-84 -66 -151.5 -177.5 t-106.5 -250.5q-41 -137 -43 -268v-14q0 -123 32 -218q72 -215 302 -215q201 0 313 121q33 35 57.5 77t42 85t27.5 84t16 78q4 23 6 42l4 38l-385 -54h-14q-37 0 -66.5 24.5t-33.5 63.5q-1 8 -1 15q0 33 21 61q25 35 66 39l674 92q8 1 16 1q33 0 60 -20q34 -26 40 -69 q1 -6 1 -11q0 -35 -23 -64q-25 -33 -66 -40l-82 -10q-2 -51 -12 -121.5t-32.5 -149.5t-62.5 -157t-104 -145q-86 -88 -192 -133q-117 -51 -270 -52q-193 0 -320 101q-119 88 -176 252q-43 124 -43 279v26z" />
<glyph unicode="H" horiz-adv-x="1628" d="M57 432q-1 8 -1 17q0 33 20 60q24 34 65 42l191 33l-29 817v6q1 39 27 67q28 30 71 33h5q38 1 68 -27q32 -30 34 -71l29 -791l665 113l-33 805v5q0 39 27 69q29 30 72 32h6q40 0 68 -26q30 -28 32 -72l31 -780l14 4q8 1 17 1q33 1 60 -19q34 -24 42 -66q2 -10 2 -19 q0 -30 -20 -57q-26 -35 -66 -43l-41 -6l23 -569v-5q0 -38 -27 -67q-29 -31 -72 -35h-4q-41 0 -70.5 29t-31.5 70l-21 542l-667 -112l16 -416v-5q1 -40 -27 -69q-30 -31 -73 -33h-2q-41 0 -71 29t-32 70l-14 389l-164 -29h-16q-37 0 -65.5 23.5t-37.5 60.5z" />
<glyph unicode="I" horiz-adv-x="1374" d="M59 1333q-1 6 -1 11q0 36 22 66q26 34 67 38l451 59v27q4 44 35 72q27 25 64 24h10q41 -2 67.5 -29.5t28.5 -66.5l393 51q8 1 15 1q32 0 60 -22q34 -26 40 -67q1 -6 1 -11q0 -36 -22 -64q-26 -34 -67 -40l-430 -55l-58 -1141h271q41 0 71.5 -29.5t30.5 -72.5 q0 -41 -30.5 -71.5t-71.5 -30.5h-308q-29 -29 -71 -29h-6q-20 0 -37 8t-31 21h-309q-43 0 -73 30.5t-30 71.5q0 43 30 72.5t73 29.5h286l58 1114l-414 -55h-12q-39 0 -67.5 24.5t-35.5 63.5z" />
<glyph unicode="J" horiz-adv-x="1523" d="M70 1296v10q0 37 24 65q29 32 70 34l422 29q6 25 24 43q31 31 72 31h1q42 -1 73 -31l26 -29l574 39h10q37 0 64 -25q32 -28 34 -71q1 -5 1 -10q0 -35 -25 -63q-27 -32 -70 -36l-442 -31q49 -80 95 -170t83 -186q76 -193 104 -365q12 -80 12 -151q0 -108 -28 -197 q-41 -121 -125 -192q-96 -80 -229 -101q-33 -6 -64 -8t-59 -2q-39 0 -74 3t-70 14q-111 27 -198 102q-86 74 -142 188q-45 88 -65 195q-20 90 -22.5 152.5t-2.5 66.5q4 35 32 55.5t61 23.5h9q29 0 57 -17q32 -19 46 -64q0 -2 2 -52t17.5 -120t47 -145.5t93.5 -126.5 q83 -71 212 -71q41 0 87 7q152 27 190 156q20 59 20 137q0 51 -9 109q-21 149 -93 329q-45 115 -104 223.5t-121 192.5l-512 -35h-6q-41 0 -69.5 26.5t-32.5 67.5z" />
<glyph unicode="K" horiz-adv-x="1636" d="M88 522q-5 14 -5 29q1 29 21 67q32 56 103 109l-25 709v5q0 41 28 69q30 30 71 32h5q40 0 68 -28q30 -30 33 -70l19 -553l202 166q121 94 227.5 168.5t200.5 132.5q127 76 227.5 114.5t180.5 45.5h10q36 0 64 -25q32 -29 36 -70v-10q0 -37 -24 -65q-28 -32 -70 -35 q-31 -2 -85 -18.5t-141 -61.5t-210 -125t-289 -211q-10 -10 -20 -17.5t-21 -15.5q68 -6 136.5 -20.5t138.5 -40.5q123 -45 229 -115t186 -156q41 -47 74 -97t55 -103q25 -58 35 -116q7 -40 8 -79q0 -19 -2 -39q-4 -41 -32.5 -68.5t-69.5 -27.5h-6q-44 4 -72 36 q-25 28 -24 63v10q1 11 1 22q0 69 -32 135q-37 76 -101.5 141.5t-147.5 118t-171 82.5q-115 40 -244 50q-20 1 -39 2q-107 0 -200 -44l18 -575v-5q0 -38 -26 -68q-28 -32 -72 -33h-4q-41 0 -71 29.5t-32 70.5l-14 424q-12 -1 -23 -1q-36 0 -61 14q-33 20 -43 48z" />
<glyph unicode="L" horiz-adv-x="1486" d="M111 1481v5q-1 40 27 68q30 30 73 31h2q41 0 70.5 -29.5t31.5 -70.5l23 -1374l1028 102q5 1 11 1q36 0 65 -24q33 -28 37 -69q1 -6 1 -11q0 -36 -24 -65q-26 -33 -70 -37l-1138 -112h-10q-41 0 -68 26q-35 29 -35 74z" />
<glyph unicode="M" horiz-adv-x="1626" d="M88 61l139 1342q4 39 32 65.5t69 26.5h6q36 1 62 -23q30 -26 34 -65q0 -2 7 -50t21.5 -125t35 -174t47.5 -198q63 -231 129 -352q37 -68 62.5 -88.5t33.5 -18.5q10 0 31.5 27t46.5 98q45 137 67 383q10 106 13.5 208t3.5 182.5t-1 130t-1 51.5v6q0 35 22 63q24 30 64 35 q9 1 17 1q29 0 55 -16q32 -20 42 -59l424 -1523q3 -14 3 -27q0 -26 -13 -51q-20 -37 -61 -49q-6 -2 -13.5 -2h-13.5q-35 0 -61.5 19.5t-36.5 53.5l-246 881q-12 -106 -29.5 -194.5t-40.5 -155.5q-37 -106 -88 -170q-43 -53 -88 -72.5t-80 -23.5q-9 -1 -19 -1q-27 0 -61 8 q-47 11 -100 56q-29 29 -56.5 64.5t-56.5 85.5q-33 61 -64.5 142t-59.5 181l-72 -694q-4 -41 -37 -67q-29 -23 -65 -24q-5 0 -11 1q-40 5 -68 37q-24 28 -25 64q0 6 1 11z" />
<glyph unicode="N" horiz-adv-x="1548" d="M96 74v1401q0 39 25.5 67.5t64.5 34.5q6 1 12 1q30 0 57 -18q32 -20 42 -59l15 -49q14 -49 40.5 -129t63.5 -183.5t84 -213.5q111 -258 221 -430q66 -98 128 -164t120 -94q44 -23 87 -23q31 0 60 12q98 37 123 228q10 64 10 142q0 33 -2 69q-6 118 -28 266 q-20 129 -48 248.5t-52.5 213t-42.5 150.5l-19 58q-6 17 -6 34q0 22 11 44q19 38 60 51q18 6 35 6q22 -1 43 -11q37 -18 51 -59q2 -6 20.5 -65.5t45 -156.5t55.5 -221t49 -259q27 -161 32 -297q1 -36 2 -70q0 -94 -11 -172q-20 -135 -74 -231q-66 -115 -178 -158 q-71 -28 -138 -28q-12 0 -24 1q-78 6 -151 43q-168 84 -330 332q-123 188 -238 463q-4 6 -5 12t-5 10v-796q0 -43 -29.5 -73t-72.5 -30q-41 0 -72 30t-31 73z" />
<glyph unicode="O" d="M82 561q-1 23 -1 46q0 147 44 296q51 172 151 320q111 166 263.5 266t328.5 125q8 1 15 1q32 -1 61 -21q35 -26 41 -66q1 -6 1 -11q0 -36 -22 -66q-26 -34 -67 -40q-141 -20 -257 -104t-197 -203t-121 -259q-35 -122 -36 -239q0 -17 1 -35q2 -59 19.5 -132.5t62.5 -139.5 t125.5 -114t210.5 -54q133 0 228 42t159.5 99.5t102.5 119t54 102.5q31 76 43 156q8 50 8 99q0 29 -2 56q-8 74 -33.5 137.5t-68.5 108.5q-46 45 -100 62q-51 16 -105 16h-6q-57 -1 -113.5 -15t-105.5 -33q-20 -8 -40 -8q-20 1 -39 9q-38 16 -54 55q-8 20 -8 40q0 21 8 39 q16 38 55 54q136 55 242 62q28 2 54 2q73 0 132 -14q80 -20 135 -56.5t90 -69.5q135 -137 160 -363q4 -39 4 -79q0 -64 -10 -130q-16 -106 -57 -206q-43 -104 -110.5 -192.5t-156.5 -151.5q-96 -70 -210 -107q-119 -39 -259 -39h-6q-143 6 -262 60q-111 51 -192 145 q-147 170 -160 430z" />
<glyph unicode="P" horiz-adv-x="1384" d="M70 459q-2 10 -2 20q0 31 18 57q24 36 64 44l77 18v659q0 43 31 73t72 30q43 0 72.5 -30t29.5 -73v-81q98 104 203 184q94 72 187 114t179 54q30 4 59 3q47 1 90 -9q69 -16 122 -62q62 -49 80 -141q7 -35 7 -71q0 -50 -13 -103q-29 -111 -105 -215q-84 -117 -215 -213 q-238 -174 -594 -279v-438q0 -43 -29.5 -72.5t-72.5 -29.5q-41 0 -72 29.5t-31 72.5v387q-10 -2 -18 -3t-19 -5q-4 0 -9 -1t-11 -1q-35 0 -63.5 23.5t-36.5 58.5zM432 653q143 45 261 102.5t210 125.5q66 49 110 95t71.5 87t42 74.5t20.5 56.5q8 31 8 54q0 14 -3 24 q-7 28 -11 33q-23 18 -55 21q-14 1 -26 1q-17 0 -32 -2q-53 -6 -120.5 -37t-144.5 -88t-161 -144t-170 -208v-195z" />
<glyph unicode="Q" d="M76 492q-1 23 -1 46q0 147 44 296q51 172 151 319q111 166 263.5 266.5t328.5 124.5q9 1 17 1q29 0 54 -17q32 -21 42 -58q21 2 41 2q88 0 165 -35q95 -43 167 -139q68 -88 106.5 -208.5t44.5 -262.5q2 -32 2 -63q0 -109 -21 -215q-28 -137 -87 -256q-96 -199 -263 -309 q-111 -74 -239 -105v-51q0 -43 -31 -72.5t-72 -29.5q-43 0 -72.5 29.5t-29.5 72.5v29q-141 6 -258 59q-111 51 -192 145q-147 170 -160 431zM281 502q2 -39 9 -85t24.5 -93.5t46 -91.5t72.5 -79.5t106.5 -60t146.5 -31.5v418q0 43 29.5 73t72.5 30q41 0 72 -30t31 -73v-387 q63 20 113.5 53t89.5 72t67.5 82t48.5 84q47 96 68 207q17 86 17 176q0 25 -1 51q-4 109 -32.5 202t-75.5 155q-72 94 -171 94q-21 0 -44 -4q-12 -2 -23 -2q-27 0 -51 14q-33 20 -45 59q-133 -29 -241.5 -114.5t-183.5 -202.5t-114 -252q-33 -114 -33 -225q0 -19 1 -39z" />
<glyph unicode="R" horiz-adv-x="1402" d="M102 1483v5q0 38 27 68q29 32 72 33h5q38 -1 68 -27q32 -28 33 -71l29 -614q88 266 203 430q84 117 184 180q100 64 217 64q17 0 35 -1q96 -6 166.5 -56t105.5 -136q25 -61 28 -137v-19q0 -67 -18 -135q-20 -78 -60 -150.5t-97 -136.5q-145 -160 -359 -217 q-49 -12 -98 -18l621 -406q35 -23 44 -65q3 -12 3 -22q0 -29 -17 -54q-16 -23 -38.5 -35t-47.5 -12q-29 0 -55 16l-719 467q-16 -82 -27.5 -152.5t-18.5 -123t-10 -83t-3 -32.5q-4 -41 -34 -67q-28 -25 -65 -25h-6q-41 2 -68.5 29.5t-31.5 68.5l-29 627v2zM510 741h18 q76 1 138 15q70 16 124 42.5t93 58.5t65 61q43 47 69.5 98t40.5 100q13 46 12 86v6q-1 43 -13 74q-25 59 -94 66h-12q-130 0 -244 -160q-55 -78 -105.5 -190t-91.5 -257z" />
<glyph unicode="S" horiz-adv-x="1406" d="M66 297q-5 29 -5 58q0 43 11 85q18 72 65 127q41 49 93.5 75t111.5 26q43 0 72.5 -30t29.5 -73t-29.5 -72.5t-72.5 -29.5q-29 0 -49 -27q-16 -20 -23.5 -47t-1.5 -55q6 -37 46 -67.5t104 -50.5q63 -20 143 -28q41 -4 85 -4q41 0 85 4q86 8 159 28t126 49.5t83.5 64.5 t30.5 73q0 20 -13 48t-66 67q-47 35 -113 66.5t-133 62.5q-72 35 -142.5 70t-130.5 76q-35 27 -62.5 53t-45.5 55q-49 74 -49 158q0 100 35.5 189t103.5 159q68 72 155 108.5t185 36.5q154 0 240 -77q88 -76 94 -195v-18q0 -111 -70 -205q-41 -53 -95 -85t-118 -38 q-6 -1 -11 -1q-36 -1 -66 23q-34 26 -37 68q-1 5 -1 11q0 35 24 64q26 34 69 38q23 2 42 15t32.5 31.5t20.5 41t5 45.5q-4 78 -129 78q-57 0 -107.5 -22.5t-87 -61.5t-58 -92.5t-21.5 -112.5q0 -31 27.5 -60.5t72.5 -58.5t99.5 -55.5t109.5 -50.5q76 -35 149.5 -70 t132.5 -80q37 -29 65 -56.5t48 -60.5q51 -78 51 -164q0 -102 -61 -184q-53 -72 -141 -123q-76 -45 -174.5 -72.5t-208.5 -37.5q-55 -6 -109 -6q-172 0 -307 47q-100 35 -170 98q-80 70 -98 172z" />
<glyph unicode="T" horiz-adv-x="1751" d="M41 1255q-1 8 -1 15q0 32 22 60q26 34 67 40l537 70l2 26q2 41 32 71q27 26 64 26h10q41 -2 67.5 -30t28.5 -67l738 97q6 1 11 1q35 0 63 -22q34 -26 40 -67q1 -6 1 -11q-1 -36 -23 -66q-26 -34 -66 -38l-774 -103l-63 -1275q-4 -41 -33 -70t-70 -29h-6q-40 4 -70 35 q-26 27 -26 64v10l63 1239l-499 -64q-4 -2 -13 -2q-39 0 -68.5 26t-33.5 64z" />
<glyph unicode="U" horiz-adv-x="1335" d="M82 481q0 88 10 191.5t31 220.5q18 98 38.5 186t39 156t31 107.5t14.5 43.5q12 42 50 60q23 11 47 11q16 0 32 -5q41 -12 59 -50q11 -22 11 -46q0 -16 -5 -33l-11 -39t-28.5 -102.5t-38 -148.5t-36.5 -177q-29 -156 -36 -266q-4 -60 -4 -109q0 -43 3 -77q6 -74 20.5 -117 t28.5 -66q16 -25 35.5 -38t48.5 -17q16 -2 40.5 2t59.5 31q88 68 172 251t154 463q29 111 49.5 212.5t34.5 179t20 125.5l6 47q4 41 34 67q28 24 65 23h6q41 -2 68.5 -30t29.5 -69l72 -1413v-6q-1 -39 -27 -67q-28 -30 -71 -35h-5q-41 0 -70.5 28.5t-31.5 69.5l-33 635 q-23 -80 -48 -150.5t-54 -134.5q-111 -254 -246 -358q-101 -77 -209 -77q-21 0 -43 3q-147 18 -229 148q-84 133 -84 370z" />
<glyph unicode="V" horiz-adv-x="1388" d="M52 1486q14 40 52 58q22 9 43 9q18 0 36 -6q40 -13 59 -52l569 -1210l305 1171q10 42 47 62q25 14 52 13q13 0 26 -3q41 -10 63 -47q15 -25 14 -52q0 -13 -3 -26l-377 -1442q-20 -70 -90 -76q-4 -2 -10 -2q-29 0 -54.5 15.5t-38.5 44.5l-690 1464q-10 22 -10 44 q1 17 7 35z" />
<glyph unicode="W" horiz-adv-x="1912" d="M78 1298q-3 13 -3 26q1 27 15 51q22 36 62 46q13 3 26 3q28 0 52 -14q36 -21 46 -62l238 -934l14 47q33 102 69 185t73 147q47 78 102 131q70 63 152 73q18 2 35 2q71 0 145 -38q74 -39 149 -109q123 -115 263 -317q23 -31 42 -62t37 -59v1073q0 43 30 72.5t73 29.5 t72.5 -29.5t29.5 -72.5v-1460q0 -35 -21.5 -62.5t-56.5 -36.5q-14 -4 -27 -4q-21 0 -41 10q-32 16 -48 48l-20 38q-19 39 -55 101.5t-83 140.5t-102 158q-125 182 -232 282q-37 35 -65.5 53.5t-49 28t-33 10.5t-16.5 1q-16 -2 -42.5 -27t-61.5 -80q-66 -109 -123 -291 q-25 -80 -44.5 -156.5t-32.5 -136t-20 -97.5l-8 -38q-6 -35 -33.5 -59.5t-62.5 -26.5h-4q-35 0 -62.5 21.5t-37.5 56.5z" />
<glyph unicode="X" horiz-adv-x="1191" d="M92 1493q10 41 47 63q24 16 52 16q12 0 24 -3q41 -10 64 -47l356 -586l276 522q21 38 61 50q16 5 31 4q24 0 48 -11q37 -20 50 -61q5 -16 5 -32q0 -24 -12 -46l-334 -631l356 -588q16 -25 16 -52q0 -11 -4 -25q-10 -40 -47 -64q-23 -14 -53 -14q-25 0 -48.5 13t-37.5 36 l-295 483l-313 -594q-14 -27 -39 -40t-53 -13q-27 0 -47 10q-37 19 -51 61q-5 16 -5 32q0 24 13 47l372 702l-420 690q-16 25 -16 53q1 12 4 25z" />
<glyph unicode="Y" horiz-adv-x="1300" d="M39 481v30q0 75 8 161q10 104 33 221q18 98 38.5 186t39 156t31 107.5t12.5 43.5q14 41 51 60q22 11 46 11q16 0 32 -5q41 -12 60 -50q12 -21 12 -44q0 -17 -7 -35q0 -2 -11 -40t-28.5 -102.5t-38 -148.5t-36.5 -176q-29 -156 -35 -266q-3 -56 -3 -102t3 -84 q6 -74 20.5 -117t28.5 -66q31 -49 84 -55q16 -2 39.5 2t58.5 31q88 68 172 250t156 462q27 111 47 212.5t34.5 180t20.5 126.5l6 47q6 41 36 67q28 23 65 23h6q41 -2 68.5 -30t29.5 -69l90 -1818v-10q0 -37 -26 -64q-29 -31 -70 -35h-6q-41 0 -69.5 29t-32.5 70l-52 1040 q-25 -80 -49 -150.5t-53 -134.5q-111 -254 -248 -358q-96 -76 -209 -76h-20.5t-20.5 2q-150 18 -231 148q-82 131 -82 370z" />
<glyph unicode="Z" horiz-adv-x="1619" d="M51 862q4 41 36 70q27 25 63 25q6 0 12 -1l291 -24q43 49 92 99t106 102q76 68 151 129t142 110h-436q-43 0 -72.5 31t-29.5 72q0 43 29.5 72.5t72.5 29.5h764q35 0 61.5 -19.5t36.5 -54.5q4 -14 4 -28q0 -19 -7 -37q-13 -32 -42 -49l-49 -32t-126 -87.5t-172 -130 t-190 -160.5q-41 -35 -73 -68l473 -39q42 -4 70 -36q24 -28 25 -64q0 -5 -1 -10q-4 -41 -32.5 -67.5t-69.5 -26.5h-9l-628 51q-92 -123 -125 -223q-16 -50 -16.5 -94t16.5 -80q25 -55 84 -84q59 -28 135 -40q58 -9 119 -9q18 1 36 1q80 4 142 9q92 10 178 26.5t151.5 32.5 t106.5 28l41 11q16 5 31 5q24 0 47 -12q37 -20 51 -61q5 -16 5 -31q-1 -24 -13 -46q-20 -36 -59 -50q-4 -2 -48.5 -15t-115 -29.5t-162.5 -34t-193 -27.5q-98 -12 -184 -12q-123 0 -225 22q-53 12 -99.5 31.5t-85.5 44.5q-92 63 -131 158q-34 78 -34 163q0 148 102 318 q4 4 5 8t5 8l-162 15q-43 4 -71 36q-24 28 -24 63q0 6 1 11z" />
<glyph unicode="[" horiz-adv-x="1017" d="M84 1362q-4 41 22.5 72.5t67.5 35.5l526 64q41 4 75 -22.5t38 -67.5q6 -41 -20.5 -75t-67.5 -40l-430 -51l86 -1315h502q43 0 72.5 -30.5t29.5 -71.5q0 -43 -29.5 -73t-72.5 -30h-598q-41 0 -70 27t-33 68z" />
<glyph unicode="\" horiz-adv-x="894" d="M64.5 1330q17.5 38 51.5 55.5t74.5 7t63.5 -57.5l571 -1181q23 -47 5.5 -85t-51.5 -55.5t-74.5 -7.5t-63.5 57l-571 1182q-23 47 -5.5 85z" />
<glyph unicode="]" horiz-adv-x="1017" d="M33 1434q0 43 29.5 72.5t72.5 29.5h598q41 0 69.5 -26.5t33.5 -67.5l98 -1510q4 -41 -22.5 -72.5t-67.5 -35.5l-527 -64q-41 -4 -74.5 23t-37.5 67q-6 41 20.5 75t67.5 40l430 51l-86 1315h-502q-43 0 -72.5 31t-29.5 72z" />
<glyph unicode="^" horiz-adv-x="1124" d="M88 676q-12 39 16 84l361 481q39 53 87 52t89 -46l383 -409q33 -43 22.5 -83t-41 -63.5t-71.5 -21.5t-74 45l-297 317l-287 -383q-29 -45 -69.5 -50t-73.5 16.5t-45 60.5z" />
<glyph unicode="_" horiz-adv-x="1538" d="M121 -364.5q0 38.5 26.5 70.5t79.5 32h1084q53 0 79.5 -32t26.5 -70.5t-26.5 -70.5t-79.5 -32h-1084q-53 0 -79.5 32t-26.5 70.5z" />
<glyph unicode="`" horiz-adv-x="557" d="M70 1424.5q0 41.5 24.5 70.5t65.5 36t82 -26l204 -172q41 -35 41 -75.5t-24.5 -69.5t-65.5 -37t-82 27l-204 172q-41 33 -41 74.5z" />
<glyph unicode="a" horiz-adv-x="1169" d="M49 520q0 199 72 346q70 145 186 207q81 44 165 45q5 0 11 -1q90 -3 168 -54q102 -66 156 -197q41 -108 41 -241q0 -31 -2 -64q-4 -41 -36 -69q-28 -25 -65 -25h-10q-41 4 -69 36q-25 28 -25 65v10q2 26 2 51q-1 81 -21 145q-26 82 -81 117q-33 22 -69 22q-32 0 -66 -18 q-59 -35 -101 -117q-51 -106 -51 -258q0 -137 51 -220t146 -99q20 -4 42 -4q35 0 73 10q62 16 118 55q66 43 113 108.5t73 143.5q10 34 40 54q25 16 53 17q6 0 12 -1q35 -4 61.5 -28t32.5 -58l61 -385q1 -8 1 -16q1 -32 -19 -60q-24 -35 -68 -41q-10 -2 -19 -2q-31 0 -57 20 q-34 26 -40 66l-17 108q-27 -29 -54.5 -52t-57.5 -44q-92 -61 -187 -84q-66 -16 -123 -16q-39 0 -71 6q-168 29 -266 162q-102 139 -103 360z" />
<glyph unicode="b" horiz-adv-x="1060" d="M63 1436v5q0 41 28 69q30 30 71 32h5q41 0 69 -28q30 -30 32 -70l13 -414q18 1 35 1q93 0 180 -27q72 -23 139.5 -62t128.5 -92q68 -59 121 -131t88 -147.5t51 -152.5q11 -51 11 -100q0 -24 -3 -47q-12 -94 -63 -163q-55 -74 -148 -103q-20 -6 -44.5 -11t-55.5 -5 q-45 0 -99.5 12t-119.5 45q-47 23 -95.5 56.5t-97.5 74.5l6 -196v-5q1 -40 -27 -69q-30 -31 -71 -33h-4q-41 0 -70.5 29.5t-31.5 70.5zM289 825l10 -350q78 -86 152.5 -148.5t140.5 -95.5q74 -35 128 -35q21 0 40 5q39 12 52 41.5t15 52.5q2 15 2 31q0 32 -8 66 q-12 52 -38.5 105.5t-65.5 104.5t-88 94q-25 20 -58.5 45t-77.5 45q-43 19 -95 31q-39 9 -81 9q-14 0 -28 -1z" />
<glyph unicode="c" horiz-adv-x="974" d="M49 520q0 197 70 346q70 143 188 207q79 44 164 45q5 0 11 -1q91 -3 169 -54q104 -66 154 -197q42 -105 42 -235q0 -34 -3 -70q-4 -41 -36 -69q-28 -25 -63 -25h-10q-43 4 -71 36q-24 28 -24 64q0 5 1 11q2 26 2 51q-1 81 -21 145q-26 82 -83 117q-33 22 -68 22 q-32 0 -65 -18q-61 -35 -101 -117q-27 -51 -39 -116.5t-12 -141.5q0 -281 166 -313q25 -5 51 -5q68 0 145 34q51 23 80 48t35 40q16 41 55 55q18 7 37 7q21 0 43 -9q40 -16 54 -56q7 -19 6 -38q0 -21 -8 -41q-25 -57 -82.5 -107.5t-135.5 -85.5q-57 -27 -115.5 -39 t-115.5 -12q-51 0 -92 8q-150 31 -238 160q-90 133 -90 354z" />
<glyph unicode="d" horiz-adv-x="1062" d="M31 270q-3 24 -3 50q0 47 10 98q15 78 51 153.5t89 147.5t121 131q123 106 268 154q47 14 95 21q38 5 76 5h22l-15 406q0 43 29 73.5t72 32.5h5q37 0 67 -28q32 -30 32 -70l49 -1462v-5q1 -40 -27 -69q-30 -31 -73 -33h-2q-41 0 -70.5 29.5t-31.5 70.5l-9 232 q-117 -104 -227 -160q-66 -33 -120 -45t-99 -12q-29 0 -53.5 4t-44.5 10q-90 29 -148 105q-53 70 -63 161zM233 295q4 -23 16.5 -52.5t51.5 -41.5q19 -5 39 -5q56 0 129 35q70 35 146.5 98.5t156.5 155.5q4 4 4 7l-10 333h-16q-48 0 -92 -10q-50 -12 -92 -31.5t-75.5 -43 t-56.5 -44.5q-49 -43 -88 -94t-65.5 -104.5t-38.5 -105.5q-9 -39 -10 -75q0 -11 1 -22z" />
<glyph unicode="e" horiz-adv-x="1013" d="M47 414q-3 13 -3 26q0 28 14 52q20 36 61 47h2q2 123 31.5 221t85.5 176q49 70 118.5 116t149.5 62q36 8 70 8q71 0 135 -35q98 -53 123 -161q6 -30 7 -60q0 -55 -22 -110q-35 -86 -114 -160q-135 -123 -367 -205q8 -35 19.5 -64.5t27.5 -52.5q43 -57 115 -69 q18 -2 36 -2q71 0 144 37q43 23 63.5 43t24.5 30q12 41 49 61q23 12 47 12q15 0 31 -5q41 -12 61 -49q12 -23 12 -47q0 -15 -5 -31q-16 -59 -66.5 -110.5t-124.5 -88.5q-119 -57 -237 -57q-16 0 -32 1t-32 3q-160 25 -252 152q-55 76 -80 184q-33 2 -58.5 22.5t-33.5 53.5z M330 608q92 37 147 73t86 64q47 43 61 78q10 25 11 43q0 7 -2 13q-4 18 -20.5 28.5t-39.5 10.5q-8 -1 -24 -5q-90 -18 -146.5 -98t-72.5 -207z" />
<glyph unicode="f" horiz-adv-x="1134" d="M37 653q-2 10 -2 20q0 31 19 57q26 34 67 42l125 21q0 109 3 200.5t11 161.5q10 84 36 153.5t66 121.5q43 53 99.5 82.5t120.5 29.5h2q68 0 129 -32.5t110 -92.5q47 -59 79 -139t44 -176q1 -6 1 -11q0 -37 -23 -66q-25 -34 -66 -38q-8 -1 -16 -1q-33 0 -60 22 q-34 26 -39 67q-16 129 -64 195.5t-95 66.5q-35 0 -72 -50t-49 -154q-6 -59 -9 -137t-3 -171l548 90q10 2 20 2q31 0 57 -19q34 -26 42 -67q1 -8 1 -16q0 -32 -19 -59q-25 -35 -66 -41l-583 -97q0 -123 4 -249.5t8 -247.5t9 -227.5t9 -187.5t7.5 -128t3.5 -49v-5 q0 -40 -27 -68q-29 -31 -70 -36h-6q-41 0 -70.5 28t-31.5 69q0 8 -3 57t-7.5 128t-9.5 181.5t-9 218t-7 239.5t-5 245l-92 -17q-4 0 -8.5 -1t-8.5 -1q-37 0 -65.5 24.5t-34.5 61.5z" />
<glyph unicode="g" horiz-adv-x="1107" d="M41 528q-1 13 -1 26q0 83 22 166q26 97 79 177q61 92 147.5 147.5t188.5 71.5q6 1 12 1q29 0 55 -15q31 -19 44 -53q16 2 32 2q46 0 95 -13l145 224q23 35 65 44q12 3 23 3q29 0 53 -17q35 -23 45 -64q2 -13 2 -24q0 -28 -16 -53l-149 -229v-2q78 -104 82 -258v-8 q0 -137 -64 -267q-63 -125 -172 -201q-90 -63 -201 -77l-20 -91q25 2 49.5 4.5t50.5 2.5q168 0 281 -84q27 -18 53.5 -48t48 -71t35.5 -96.5t14 -124.5q0 -102 -45 -192.5t-123.5 -156t-185 -103.5t-229.5 -38q-74 0 -138.5 16.5t-111.5 51.5q-125 84 -125 239 q0 168 129 263q47 37 108.5 56t126.5 19q92 0 159 -35.5t89 -99.5q6 -18 6 -35q0 -23 -10 -44q-18 -38 -59 -52q-18 -7 -35 -7q-19 0 -38 8q-36 15 -52 50q-6 4 -21.5 7t-38.5 3q-6 0 -31.5 -3t-54 -15t-51 -38.5t-22.5 -76.5q0 -35 17.5 -54t44 -30.5t55 -14.5t53.5 -3 q82 0 153.5 22.5t124.5 67.5q47 41 74 90t27 105q0 35 -7.5 73.5t-31 70.5t-68.5 53.5t-121 21.5q-78 0 -137 -15.5t-63 -17.5q-17 -6 -34 -6q-34 0 -67 26q-36 31 -36 75q0 11 3 24l48 219q-106 35 -177 119q-98 115 -104 284zM246 537q0 -20 5 -49t18.5 -59t37 -57.5 t60.5 -45.5l36 172q10 41 45 64q24 17 50 17q13 0 26 -4q41 -10 64 -45q17 -24 17 -51q0 -12 -3 -24l-24 -121q57 29 90.5 69.5t50.5 73.5q20 41 29.5 86t9.5 88t-9.5 81t-29.5 65q-35 49 -103 49q-19 0 -41 -4q-9 -2 -18 -2q-25 0 -49 13q-31 17 -45 50q-53 -18 -95 -56 t-70 -88t-42 -109q-11 -45 -11 -88q0 -13 1 -25z" />
<glyph unicode="h" horiz-adv-x="1157" d="M63 1436v5q0 39 27 69q29 30 72 32h5q41 0 69 -28q30 -30 32 -70l27 -780q31 68 63.5 125t69.5 104q141 188 324 201q15 1 30 1q149 0 242 -110q82 -96 102 -268q8 -63 8 -136q0 -5 1 -10q0 -69 -7 -147q-6 -68 -15 -129.5t-18.5 -108.5t-16.5 -75.5t-7 -30.5 q-8 -35 -35.5 -56.5t-62.5 -21.5q-8 0 -25 4q-42 10 -64 46q-16 25 -15 52q0 12 3 25l6 27q7 26 15 69t16.5 99.5t14.5 119.5q6 68 6 126q0 68 -8 122q-12 109 -56 162q-12 14 -34 26q-16 9 -44 10q-9 0 -20 -1q-88 -6 -178 -121q-41 -53 -81 -128t-75 -171 q-31 -84 -53.5 -164t-37.5 -142.5t-23 -100.5l-7 -39q-6 -37 -34.5 -61.5t-65.5 -24.5q-4 0 -6 2q-41 2 -67.5 29.5t-28.5 68.5z" />
<glyph unicode="i" horiz-adv-x="331" d="M39 1309q0 45 30.5 75.5t73.5 30.5q45 0 76 -30.5t31 -75.5q0 -43 -31 -74t-76 -31q-43 0 -73.5 31t-30.5 74zM55 922v5q0 41 28 69q30 30 73 32h5q39 0 67 -28q30 -30 32 -70l29 -887v-5q0 -40 -28 -68q-30 -30 -71 -33h-4q-41 0 -70.5 29.5t-31.5 70.5z" />
<glyph unicode="j" horiz-adv-x="413" d="M-369 -449q-1 8 -1 16q0 33 22 61q26 34 67 38q8 1 16 1q33 0 61 -21q34 -27 38 -68q16 -129 64.5 -195.5t93.5 -66.5h2q35 0 71.5 49t47.5 156q10 100 13 241q2 71 2 145t-2 151q-3 155 -9 307.5t-13.5 274.5t-12.5 198.5t-5 79.5v10q0 37 24 64q29 32 72 36h10 q35 0 63 -24q32 -29 36 -70q0 -10 5 -92t12 -207t13.5 -278.5t9.5 -309.5q1 -78 1 -153t-1 -147q-3 -144 -14 -249q-10 -84 -35.5 -153.5t-66.5 -120.5q-43 -53 -99.5 -83t-119.5 -30h-4q-66 0 -128.5 32t-111.5 93q-47 59 -77.5 138t-43.5 177zM39 1309q0 45 30.5 75.5 t73.5 30.5q45 0 76 -30.5t31 -75.5q0 -43 -31 -74t-76 -31q-43 0 -73.5 31t-30.5 74z" />
<glyph unicode="k" horiz-adv-x="1298" d="M66 1436v6q0 40 26 68q28 30 72 32h5q41 0 69 -28q30 -30 32 -70l31 -905q18 43 38.5 87t43.5 91q70 143 138.5 258t133.5 201q188 240 365 251h10q36 -1 64 -25q32 -28 36 -69v-10q0 -37 -24 -65q-28 -32 -70 -35q-12 0 -32.5 -7.5t-48 -26t-61.5 -52t-77 -88.5 q-109 -139 -225 -373q89 33 177 33q82 0 163 -29q78 -29 142.5 -83t109.5 -132q79 -138 80 -318q0 -24 -2 -49q-4 -41 -33 -68.5t-70 -27.5h-6q-43 4 -71 36q-25 28 -25 63v10q2 22 2 43q0 112 -45 198q-53 102 -154 135q-46 18 -95 18q-63 0 -130 -30q-119 -53 -217 -184 q-49 -123 -77 -203t-30 -80q-10 -33 -36.5 -52t-59.5 -19q-4 0 -7 1t-7 1q-37 4 -61.5 32.5t-26.5 65.5z" />
<glyph unicode="l" horiz-adv-x="346" d="M47 1436v5q-1 41 27 69q30 30 71 32h5q40 0 69 -28q31 -30 33 -70l47 -1401v-5q-1 -38 -27 -68q-28 -32 -71 -33h-4q-41 0 -71 29.5t-32 70.5z" />
<glyph unicode="m" horiz-adv-x="2015" d="M63 987v5q0 38 27 68q29 32 72 34h5q37 0 67 -27q32 -29 34 -70l19 -352q66 152 141 248q145 188 326 201q15 1 30 1q149 0 240 -110q63 -76 90 -197q70 119 141 195q78 84 162 123q81 37 166 37q22 0 43 -2q72 -10 130 -45.5t99 -96.5q74 -109 91 -294q4 -52 5 -111 q0 -19 -1 -39q-2 -80 -13 -170q-8 -74 -20 -140.5t-22.5 -116.5t-18.5 -81t-8 -33q-10 -35 -37 -56t-62 -21q-10 0 -26 4q-41 10 -61 47q-14 25 -14 52q0 13 3 26l7 28q8 29 17 76t19 109.5t19 132.5q13 105 13 192q0 52 -5 98q-12 122 -53 183q-31 45 -86 51q-10 1 -20 1 q-88 0 -177 -93q-98 -100 -180 -293q-29 -63 -51.5 -127t-41 -121t-30.5 -103t-19 -75l-10 -45q-10 -42 -46 -64q-25 -16 -52 -15q-12 0 -25 3q-42 10 -64 45q-17 26 -16 55q0 10 2 21l11 47q10 41 22.5 113.5t18.5 158.5q6 72 6 134t-6 114q-16 115 -58 162q-10 14 -32 26 q-17 9 -46 10q-9 0 -20 -1q-88 -6 -178 -121q-82 -106 -154 -299q-31 -84 -54.5 -164t-37.5 -142.5t-22 -100.5l-7 -39q-7 -39 -37 -64q-25 -21 -58 -21q-7 0 -13 1q-39 2 -65.5 28.5t-30.5 67.5z" />
<glyph unicode="n" horiz-adv-x="1191" d="M63 987v5q0 38 27 68q29 32 72 34h5q37 0 67 -27q32 -29 34 -70l19 -352q66 152 141 248q145 188 326 201q15 1 30 1q149 0 240 -110q82 -96 102 -268q8 -63 10 -136v-21q0 -64 -8 -136q-6 -68 -15 -129.5t-17.5 -108.5t-15.5 -75.5t-7 -30.5q-10 -35 -37.5 -56.5 t-62.5 -21.5q-8 0 -25 4q-40 10 -62 46q-15 25 -15 51q0 13 3 26l6 27q7 26 14 69t15.5 99.5t14.5 119.5q6 72 6 134t-6 114q-16 115 -58 162q-10 14 -32 26q-17 9 -46 10q-9 0 -20 -1q-88 -6 -178 -121q-82 -106 -154 -299q-31 -84 -54.5 -164t-37.5 -142.5t-22 -100.5 l-7 -39q-6 -37 -34.5 -61.5t-67.5 -24.5q-4 0 -6 2q-39 2 -65.5 28.5t-30.5 67.5z" />
<glyph unicode="o" horiz-adv-x="1140" d="M57 475v25q0 98 27 196q31 112 93.5 204.5t156.5 158t215 82.5q9 1 17 1q32 0 56 -18q32 -22 42 -61q24 2 46 2q74 0 136 -25q94 -32 160 -120q86 -115 90 -289v-15q0 -71 -16 -144q-18 -81 -54 -153q-72 -141 -195 -227q-141 -94 -315 -94h-6q-209 10 -336 158 q-106 129 -117 319zM262 485q2 -31 11.5 -77t36 -90t76.5 -77.5t132 -37.5q72 0 126 22.5t93 53t65 66.5t40 65q25 49 37 103t12 106.5t-12.5 98.5t-36.5 81q-48 61 -134 61q-23 0 -49 -4q-11 -2 -22 -2q-27 0 -51 16q-32 22 -43 62q-70 -18 -123 -64.5t-89 -107.5 q-37 -62 -55 -134q-15 -59 -14 -116q-1 -13 0 -25z" />
<glyph unicode="p" horiz-adv-x="1060" d="M63 989v5q0 38 28 67q30 31 73 33h5q38 0 67 -28q30 -30 32 -73l4 -180q119 109 232 164q109 53 188 55h18q67 0 111 -14q93 -29 148 -103q27 -35 42 -75.5t21 -87.5q3 -24 3 -50q0 -47 -10 -97q-15 -77 -51 -152.5t-89.5 -147.5t-120.5 -131q-61 -53 -129 -92t-139 -62 q-47 -14 -91.5 -21t-91.5 -7h-18l20 -776v-5q0 -38 -27 -67q-30 -31 -71 -33h-4q-41 0 -70.5 29t-31.5 69zM281 528l8 -329q14 -1 28 -1q42 0 81 9q53 12 96 31.5t76.5 44.5t58.5 45q49 43 88 94t65.5 104.5t39.5 105.5q8 33 8 64q0 17 -3 33q-2 23 -15 52.5t-52 41.5 q-19 6 -40 6q-55 0 -126 -36q-70 -35 -147.5 -98.5t-155.5 -155.5q-4 -4 -5 -6.5t-5 -4.5z" />
<glyph unicode="q" horiz-adv-x="1148" d="M47 475v25q0 97 27 196q30 111 92.5 204t157 158.5t215.5 82.5q9 1 17 1q31 0 56 -18q31 -22 41 -61q24 2 46 2q75 0 137 -25q94 -33 159 -120q86 -115 90 -289v-16q0 -70 -16 -143q-18 -81 -53 -153q-35 -66 -76 -118l125 -160q22 -29 22 -62q0 -7 -1 -14 q-5 -41 -39 -67q-29 -23 -64 -23q-49 0 -80 41l-121 154q-125 -72 -276 -72h-6q-209 10 -336 158q-106 129 -117 319zM252 485q2 -31 11 -77t36 -90t77 -77.5t132 -37.5q43 0 80 8t67 22l-170 218q-22 27 -22 61q0 6 1 14q5 41 40 68q29 22 62 22h14q41 -6 67 -41l162 -206 l22 41q25 49 37.5 103t12.5 106.5t-12.5 98.5t-37.5 81q-48 61 -133 61q-23 0 -49 -4q-11 -2 -22 -2q-28 0 -51 16q-33 21 -44 62q-70 -18 -123 -64.5t-88.5 -108t-54.5 -133.5q-15 -58 -15 -116q0 -13 1 -25z" />
<glyph unicode="r" horiz-adv-x="1146" d="M66 987v10q0 35 26 63q30 32 70 34h5q39 0 69 -27q30 -29 34 -70l17 -352q35 74 69.5 136.5t73.5 111.5q141 188 324 201q15 1 29 1q126 0 212 -79q37 -35 66 -82t45 -107q27 -92 31 -219q0 -41 -29 -71.5t-72 -32.5h-2q-41 0 -71.5 29.5t-30.5 70.5q-6 199 -74 260 q-10 10 -29.5 19.5t-58.5 5.5q-88 -6 -178 -121q-80 -104 -156 -299q-31 -84 -53.5 -164t-36.5 -142.5t-22 -100.5l-9 -39q-6 -37 -34.5 -61.5t-65.5 -24.5q-4 0 -6 2q-39 2 -66.5 28.5t-29.5 67.5z" />
<glyph unicode="s" horiz-adv-x="935" d="M31 297q0 43 30.5 72.5t71.5 29.5q43 0 73 -29.5t30 -72.5q0 -49 22.5 -82t56 -52.5t71.5 -27.5t69 -8q33 0 72.5 7t75.5 27.5t60.5 55.5t26.5 90v10q0 55 -20 103q-22 52 -59.5 95.5t-84.5 82.5t-94 76q-43 35 -82 67.5t-67 67.5q-54 66 -54 147q0 86 60 154 q66 72 162 82l28 2q86 0 170 -53q37 -23 47 -65q3 -12 2 -24q0 -28 -16 -53q-24 -37 -64 -46q-11 -3 -22 -3q-28 0 -55 17q-33 21 -57 21h-6q-26 -2 -36 -15q-12 -12 -8 -22.5t8 -14.5q16 -23 48 -47.5t69 -52.5q53 -41 111.5 -90.5t107.5 -110.5q55 -70 86 -148 q31 -81 31 -166v-20q-4 -90 -42 -165t-110 -128q-121 -86 -284 -86h-8q-164 0 -281 92q-68 51 -103.5 124t-35.5 159z" />
<glyph unicode="t" horiz-adv-x="1132" d="M41 819q-1 8 -1 16q0 32 20 60q24 35 65 43l108 18l-16 480v5q-1 41 27 69q30 30 71 32h5q40 0 69 -28q31 -30 33 -70l14 -451l570 99q10 2 20 2q30 0 56 -18q34 -24 42 -66q1 -8 1 -17q1 -33 -19 -60q-24 -34 -66 -42l-596 -105l25 -743v-5q-1 -38 -27 -68 q-28 -32 -71 -33h-4q-41 0 -71 29.5t-32 70.5l-24 713l-80 -15q-4 0 -8.5 -1t-8.5 -1q-37 0 -65.5 24.5t-36.5 61.5z" />
<glyph unicode="u" horiz-adv-x="1191" d="M56 513v23q0 63 7 134q6 70 15.5 131t18.5 108t15.5 76t6.5 31q10 42 47 64q26 16 53 15q12 0 25 -3q40 -10 62 -47q14 -24 15 -51q0 -13 -5 -27l-5 -27q-6 -27 -13 -70t-15.5 -99t-14.5 -120q-6 -72 -6 -134.5t6 -115.5q16 -115 58 -161q10 -14 32 -26q17 -9 46 -10 q9 0 20 1q88 6 174 106.5t160 284.5q31 78 53.5 151.5t36.5 132t22 94.5l9 36q7 40 37 64q26 21 58 21q5 0 11 -1q39 -2 65.5 -30t30.5 -67l47 -952v-6q0 -39 -26 -67q-28 -30 -72 -35h-4q-41 0 -70.5 28.5t-31.5 69.5l-19 387q-70 -143 -143 -234q-145 -176 -322 -188 q-8 0 -15 -1t-15 -1q-145 0 -242 108q-82 100 -102 271q-8 63 -10 136z" />
<glyph unicode="v" horiz-adv-x="1077" d="M55 890q0 46 1 74.5t1 30.5q2 43 34 72q30 27 68 27h5q44 -2 72 -34q27 -30 26 -68v-5l-1 -27q-1 -26 -1 -69t3 -99.5t11 -117.5q16 -154 55.5 -262.5t92.5 -161.5q47 -46 112 -46q8 0 15 1q27 2 63.5 19.5t77.5 82.5q59 92 94 266q14 78 21.5 152t9.5 132t2 95v37v5 q1 38 27 67q28 31 71 33h5q40 0 69 -27q31 -29 33 -72v-43t-3 -102.5t-10.5 -144t-23.5 -166.5q-20 -104 -49 -189.5t-70 -150.5q-37 -57 -75.5 -95t-78.5 -59.5t-78 -32t-71 -12.5q-6 0 -13 -1t-15 -1q-145 0 -256 106q-82 78 -134.5 216.5t-74.5 332.5q-8 68 -11.5 129.5 t-3.5 107.5z" />
<glyph unicode="w" horiz-adv-x="1859" d="M57 962.5v30.5q0 41 30 71t73 30h2q41 0 70.5 -31t29.5 -74t2 -94q2 -43 6 -99.5t15 -117.5q20 -141 59 -250q43 -121 105 -176q48 -48 115 -47h16q35 2 61.5 16.5t50.5 42.5q47 53 78 152.5t41 234.5q8 77 8 140v25q-2 73 -2 97q-2 6 -2 13v5q1 39 27 67q28 30 69 34h10 q35 0 63 -24q32 -28 36 -70v-12q4 -25 12 -100.5t31 -174.5q33 -141 80 -241.5t106 -153.5q60 -52 134 -52q8 0 16 1q57 2 96 51q45 55 69.5 164.5t26.5 259.5q0 59 -2 113.5t-6 95.5q-4 47 -8 88q-1 8 -1 16q0 33 20 61q26 34 69 40q8 1 15 1q32 -1 60 -21q34 -26 40 -68 q0 -2 4 -29t7 -72t6 -103q2 -35 2 -74q0 -25 -1 -52q-6 -379 -141 -547q-94 -117 -242 -129q-8 0 -15 -1t-16 -1q-72 0 -135 25q-72 25 -133 79q-90 78 -160 224q-20 -59 -46.5 -107.5t-59.5 -87.5q-102 -119 -254 -131q-16 -1 -31 -1q-146 0 -256 103q-170 160 -225 547 q-10 70 -15.5 131.5t-7.5 107.5t-2 74.5z" />
<glyph unicode="x" horiz-adv-x="1159" d="M43 1002q4 40 39 69q29 25 64 25h10q41 -4 69 -39l320 -387l370 446q27 35 69 39h10q36 0 65 -25q33 -30 37 -70q1 -5 1 -10q0 -34 -24 -63l-395 -477l334 -406q23 -28 23 -63q-1 -5 -1 -11q-4 -42 -37 -69q-28 -24 -62 -24h-3q-45 0 -78 38l-309 373l-258 -311 q-31 -37 -80 -37q-33 0 -66 23q-33 29 -37 71v9q0 36 25 65l283 342l-344 418q-25 29 -25 64v10z" />
<glyph unicode="y" horiz-adv-x="1148" d="M14 513v11q0 68 6 146q6 70 15.5 131t18.5 108t16.5 76t7.5 31q10 41 46 62q25 15 51 15q13 0 26 -3q41 -10 63 -46q16 -24 16 -51q0 -13 -4 -26l-6 -27t-14 -70t-16.5 -100t-14.5 -121q-6 -71 -6 -133t6 -115q14 -111 58 -161q12 -14 33 -26q17 -10 45 -10q10 0 20 1 q90 6 175 106.5t159 284.5q31 78 53.5 151.5t37.5 132t22 94.5l8 36q6 39 36 64q27 21 61 21q5 0 11 -1q39 -4 65.5 -32t28.5 -67l47 -1779v-5q0 -40 -27 -69q-30 -31 -71 -31h-4q-41 0 -70.5 29t-31.5 69l-31 1186q-31 -61 -63.5 -113.5t-67.5 -93.5q-141 -176 -322 -188 q-10 -2 -30 -2q-150 0 -242 108q-80 96 -102 271q-8 63 -9 136z" />
<glyph unicode="z" horiz-adv-x="1210" d="M55 719q6 43 41 67q26 18 56 19q10 0 20 -2l195 -31q45 39 96 78l100 72h-258q-43 0 -72.5 30.5t-29.5 71.5q0 43 29.5 72.5t72.5 29.5h627q35 0 63.5 -21.5t36.5 -55.5q3 -12 3 -24q0 -22 -10 -43q-15 -32 -46 -48l-29 -16q-30 -17 -78.5 -44.5t-109 -65.5t-123.5 -83 l152 -25q41 -6 67 -40q19 -26 18 -55q0 -10 -2 -21q-6 -39 -34.5 -62.5t-65.5 -23.5q-12 0 -16 2l-326 53q-23 -23 -41 -45.5t-33 -44.5q-25 -37 -36 -64.5t-12 -47t2 -31t5 -17.5q19 -49 115 -75q89 -25 225 -25h21q68 0 131 6t112.5 13t78.5 12l30 6q10 2 20 2 q30 0 57 -18q36 -24 44 -66q2 -10 2 -20q1 -29 -17 -56q-24 -35 -65 -43q-4 0 -37 -6t-87 -14.5t-122.5 -14.5t-144.5 -6h-18q-168 0 -289 35q-184 51 -244 188q-25 55 -25 117q0 36 9 74q18 84 75 168l11 12l-60 10q-43 6 -67 41q-18 26 -19 56q0 10 2 20z" />
<glyph unicode="{" horiz-adv-x="1077" d="M66 557q-6 119 75 182q29 25 76 39q-4 8 -9 15.5t-9 17.5q-68 109 -97 211q-41 139 -12 256q29 119 131 186q90 59 205 62q72 4 143.5 -12.5t135.5 -51.5q72 -39 122 -95t72 -122q14 -41 -4 -79t-59 -52t-79 5.5t-52 60.5q-18 61 -97 102q-84 45 -174 39q-16 0 -38.5 -4 t-44 -14.5t-39 -28t-23.5 -45.5q-10 -39 -5 -80t17 -82t31.5 -79t38.5 -68q23 -39 46 -72t44 -55q23 -27 43 -50q25 -27 29 -61.5t-15 -63.5q-8 -14 -22 -24q25 -10 39 -25q23 -23 28.5 -54.5t-8.5 -59.5l-8 -19q-8 -20 -20.5 -53t-27 -75t-26.5 -91q-29 -117 -28 -205 t32 -141q31 -55 81 -66.5t91 -3.5q68 10 114 44t50 59q8 41 44 64.5t77 15.5q41 -10 64.5 -45t15.5 -76q-23 -102 -125 -180q-45 -33 -98.5 -53.5t-108.5 -30.5q-37 -7 -72 -7q-100 0 -182 45.5t-129 131.5q-102 178 -23 501q4 23 10.5 43.5t12.5 40.5q-82 0 -139 33 q-41 27 -65.5 70t-28.5 100zM270 561q8 -2 26.5 -2t49.5 8q10 2 19.5 4t19.5 7q-10 2 -22.5 4t-26.5 4q-31 2 -46.5 0t-19.5 -4v-15v-6z" />
<glyph unicode="|" horiz-adv-x="387" d="M82 1241q0 53 30.5 80t69.5 27t72 -27t33 -80l12 -1485q0 -53 -31.5 -79.5t-69.5 -26.5t-71 26.5t-33 79.5z" />
<glyph unicode="}" horiz-adv-x="1077" d="M63 1260q10 51 43 97t82 83q45 33 98.5 53t108.5 31q37 6 72 6q100 0 182 -45t129 -131q102 -178 23 -502q-4 -23 -10.5 -43.5t-12.5 -40.5q82 0 140 -33q41 -27 65.5 -69.5t28.5 -100.5q6 -119 -76 -182q-29 -25 -76 -39q4 -8 9 -15t10 -18q68 -109 96 -211 q41 -139 12 -256q-29 -119 -131 -186q-43 -29 -94 -44t-111 -17q-72 -4 -143.5 12t-134.5 51q-72 39 -122 95.5t-73 121.5q-14 41 4.5 79t59.5 52t78.5 -5t52.5 -60q18 -61 96 -103q84 -45 174 -39q16 0 39 4.5t44.5 14.5t38.5 27.5t23 46.5q8 39 4 79.5t-16 81.5t-31.5 79 t-37.5 69q-23 39 -47.5 71.5t-43.5 55.5q-23 27 -43 49q-25 27 -28.5 61.5t14.5 63.5q8 14 23 24q-25 10 -39 25q-23 23 -29 54.5t8 60.5l8 20q9 19 21 50.5t26.5 74.5t26.5 92q29 117 28 205t-32 141q-31 55 -81 66.5t-91 3.5q-68 -10 -114 -44t-50 -58q-8 -41 -44 -65 t-77 -15q-41 10 -64.5 45t-15.5 76zM692 545q10 -2 22.5 -4t26.5 -4q31 -2 46.5 0t19.5 4v14v6q-8 2 -26.5 2t-49.5 -8q-10 -2 -19.5 -4t-19.5 -6z" />
<glyph unicode="~" horiz-adv-x="1423" d="M84 299q-16 39 0 80q2 2 25.5 54t64.5 118q121 201 254 223q121 16 225 -63q39 -31 71 -68t60 -74q47 -59 80 -91t66 -27q43 6 74.5 28.5t54 56t39 76.5t30.5 90q4 10 5.5 17.5t5.5 15.5q14 41 51 60.5t78 5.5q41 -12 60.5 -50t4.5 -79q-2 -6 -4 -13.5t-4 -15.5 q-16 -47 -36.5 -104.5t-59.5 -114.5q-98 -152 -268 -176q-10 -2 -20.5 -3t-20.5 -1q-86 0 -172 63q-35 29 -65 65t-58 70q-55 70 -91 101.5t-75 27.5l-9 -4q-8 -4 -22 -17t-34.5 -39t-47.5 -69q-16 -29 -28.5 -53t-22.5 -45q-10 -23 -21 -43q-12 -31 -38.5 -47t-55.5 -16 q-20 0 -39 6q-41 16 -57 55z" />
<glyph unicode="&#xa1;" horiz-adv-x="368" d="M57 903q0 45 31 76t74 31q45 0 75.5 -31t30.5 -76q0 -43 -30.5 -73.5t-75.5 -30.5q-43 0 -74 30.5t-31 73.5zM74 516q-2 43 27.5 74t72.5 33q41 2 71.5 -28t33.5 -71l28 -940q2 -43 -27.5 -73.5t-70.5 -32.5h-4q-41 0 -71 29.5t-32 70.5z" />
<glyph unicode="&#xa3;" horiz-adv-x="1431" d="M51 625q-8 41 17.5 75.5t66.5 40.5l137 21q25 340 140 547q82 156 192 219q106 66 221 35q53 -12 100.5 -44t84.5 -79q35 -43 53 -90t18 -90q0 -41 -30.5 -72t-71.5 -31q-43 0 -72.5 31t-29.5 72q0 8 -8.5 24t-23 32.5t-32.5 31t-41 18.5q-29 6 -57.5 -10.5t-52 -42 t-43 -54t-29.5 -49.5q-84 -156 -109 -417l484 73q43 6 76.5 -18.5t39.5 -67.5q8 -41 -17.5 -74.5t-68.5 -41.5l-524 -78v-62q2 -98 9 -182t14 -143l782 51q41 4 72.5 -24.5t35.5 -71.5q4 -41 -24.5 -73t-71.5 -36l-876 -55q-2 0 -3 -1t-3 -1q-39 0 -68 24.5t-35 61.5 q0 2 -5 37.5t-11 96t-12.5 141.5t-8.5 173v31l-100 -14q-4 0 -7 -1t-7 -1q-37 0 -67 24.5t-34 63.5z" />
<glyph unicode="&#xa8;" horiz-adv-x="718" d="M59 1329q0 45 31 76t74 31q45 0 75.5 -31t30.5 -76q0 -43 -30.5 -73.5t-75.5 -30.5q-43 0 -74 30.5t-31 73.5zM449 1329q0 45 30.5 76t73.5 31q45 0 75.5 -31t30.5 -76q0 -43 -30.5 -73.5t-75.5 -30.5q-43 0 -73.5 30.5t-30.5 73.5z" />
<glyph unicode="&#xad;" horiz-adv-x="909" d="M102 567q-2 39 23 72t78 37l495 26q53 2 82 -27.5t31 -68.5t-22.5 -72.5t-77.5 -35.5l-496 -27q-53 -4 -82 26.5t-31 69.5z" />
<glyph unicode="&#xaf;" horiz-adv-x="800" d="M62 1358q-1 39 25 71.5t79 32.5l465 21q53 0 79.5 -32t27.5 -70t-24.5 -70.5t-78.5 -32.5l-465 -21q-53 0 -80 31t-28 70z" />
<glyph unicode="&#xb4;" horiz-adv-x="557" d="M70 1257.5q0 40.5 41 75.5l204 172q41 33 82 26t65.5 -36t24.5 -71t-41 -74l-204 -172q-41 -35 -82 -27t-65.5 37t-24.5 69.5z" />
<glyph unicode="&#xb8;" horiz-adv-x="688" d="M49 -571q4 41 37 68.5t74 23.5q72 -6 121 5t79.5 29.5t47 39t22.5 32.5q14 29 13 55.5t-15 43.5q-16 16 -60 19t-120 -26q-49 -23 -96 11q-20 14 -33 35.5t-13 48.5v211q0 41 31 71.5t72 30.5q43 0 72.5 -30.5t29.5 -71.5v-78q25 4 46.5 4t43.5 -2q111 -12 179 -86 q59 -63 67 -152.5t-35 -175.5q-57 -113 -174 -172q-102 -49 -231 -49h-32.5t-33.5 2q-43 4 -69.5 37t-22.5 76z" />
<glyph unicode="&#xbf;" horiz-adv-x="954" d="M45 -272q-37 121 14 299q37 127 119 280q35 63 70 118.5t62.5 97.5t45 66.5t19.5 26.5q31 41 82 41q33 0 61 -22q35 -25 40 -67t-21 -76q-27 -39 -58 -84q-27 -39 -58.5 -89.5t-62.5 -109.5q-72 -133 -102 -240q-33 -117 -14 -184q6 -20 22.5 -40.5t59.5 -37.5 q131 -49 239 43q70 59 111 156q18 47 23 83t1 56q-8 41 16.5 76t65.5 43t76 -16.5t43 -65.5q10 -53 1 -118.5t-38 -135.5t-70.5 -129t-95.5 -105q-98 -82 -211.5 -102t-232.5 23q-160 59 -207 213zM387 911q0 45 31 76t74 31q45 0 75.5 -31t30.5 -76q0 -43 -30.5 -73.5 t-75.5 -30.5q-43 0 -74 30.5t-31 73.5z" />
<glyph unicode="&#xc0;" horiz-adv-x="1673" d="M74 365q-10 41 11 77.5t62 46.5l113 31v41t2 43q6 129 18.5 239.5t34.5 205.5q59 252 170 378q51 61 119 97q74 39 154 41q92 4 176 -31q39 -16 73.5 -40t65.5 -56q186 -190 254 -639l160 41q41 10 78 -11.5t47 -62.5t-11.5 -78t-62.5 -47l-186 -49q10 -109 13 -206 t3 -171t-2 -119t-2 -49q-2 -41 -31.5 -68.5t-70.5 -27.5h-7q-41 4 -69.5 34.5t-26.5 73.5l2 39t2 104.5t-2 152.5t-10 186l-688 -181q4 -119 9 -194.5t5 -77.5q4 -43 -23.5 -75.5t-68.5 -37.5q-43 -4 -76 24t-37 71q0 4 -4 68.5t-8 168.5l-61 -14q-8 -4 -25 -4 q-35 0 -62.5 20.5t-37.5 55.5zM465 573l663 172q-10 72 -23 134.5t-30 119.5q-59 205 -147 293q-68 70 -162 68q-70 -2 -127 -66q-78 -92 -123 -290q-39 -172 -49 -408q0 -16 -2 -23zM483 1936.5q0 41.5 24.5 70.5t65.5 36t82 -26l205 -172q41 -35 41 -75.5t-24.5 -69.5 t-65.5 -37t-82 27l-205 172q-41 33 -41 74.5z" />
<glyph unicode="&#xc1;" horiz-adv-x="1673" d="M74 365q-10 41 11 77.5t62 46.5l113 31v41t2 43q6 129 18.5 239.5t34.5 205.5q59 252 170 378q51 61 119 97q74 39 154 41q92 4 176 -31q39 -16 73.5 -40t65.5 -56q186 -190 254 -639l160 41q41 10 78 -11.5t47 -62.5t-11.5 -78t-62.5 -47l-186 -49q10 -109 13 -206 t3 -171t-2 -119t-2 -49q-2 -41 -31.5 -68.5t-70.5 -27.5h-7q-41 4 -69.5 34.5t-26.5 73.5l2 39t2 104.5t-2 152.5t-10 186l-688 -181q4 -119 9 -194.5t5 -77.5q4 -43 -23.5 -75.5t-68.5 -37.5q-43 -4 -76 24t-37 71q0 4 -4 68.5t-8 168.5l-61 -14q-8 -4 -25 -4 q-35 0 -62.5 20.5t-37.5 55.5zM465 573l663 172q-10 72 -23 134.5t-30 119.5q-59 205 -147 293q-68 70 -162 68q-70 -2 -127 -66q-78 -92 -123 -290q-39 -172 -49 -408q0 -16 -2 -23zM647 1769.5q0 40.5 41 75.5l205 172q41 33 82 26t65.5 -36t24.5 -71t-41 -74l-205 -172 q-41 -35 -82 -27t-65.5 37t-24.5 69.5z" />
<glyph unicode="&#xc2;" horiz-adv-x="1673" d="M74 365q10 -35 37.5 -55.5t62.5 -20.5q16 0 25 4l61 14q4 -104 8 -168.5t4 -68.5q4 -43 37 -71t76 -24q41 4 68.5 37t23.5 76q0 2 -5 78t-9 194l688 181q8 -98 10 -185.5t2 -153t-2 -104.5l-2 -39q-2 -43 26.5 -73.5t69.5 -34.5h7q41 0 70.5 27.5t31.5 68.5q0 4 2 49 t2 119t-3 171t-13 206l186 49q41 10 62.5 47t11.5 78t-47 62.5t-78 11.5l-160 -41q-68 449 -254 639q-31 33 -65.5 56.5t-73.5 39.5q-84 35 -176 31q-80 -2 -154 -41q-68 -35 -119 -97q-111 -127 -170 -378q-23 -94 -35 -205t-18 -240q-2 -23 -2 -43v-41l-113 -31 q-41 -10 -62.5 -46.5t-10.5 -77.5zM449 1712q0 37 19 62.5t46 52.5l82 78q43 41 79 71.5t38 32.5q29 27 68.5 27t68.5 -27l248 -223q31 -29 34 -71t-26 -73q-31 -34 -78 -34q-37 0 -67 26l-181 162q-47 -43 -87 -81t-54 -54q-14 -23 -36.5 -37t-51.5 -14q-43 0 -72.5 30.5 t-29.5 71.5zM465 573q2 7 2 23q10 236 49 408q45 199 123 290q57 63 127 66q94 2 162 -68q88 -88 147 -293q16 -57 29.5 -119.5t23.5 -134.5z" />
<glyph unicode="&#xc3;" horiz-adv-x="1673" d="M74 365q10 -35 37.5 -55.5t62.5 -20.5q16 0 25 4l61 14q4 -104 8 -168.5t4 -68.5q4 -43 37 -71t76 -24q41 4 68.5 37t23.5 76q0 2 -5 78t-9 194l688 181q8 -98 10 -185.5t2 -153t-2 -104.5l-2 -39q-2 -43 26.5 -73.5t69.5 -34.5h7q41 0 70.5 27.5t31.5 68.5q0 4 2 49 t2 119t-3 171t-13 206l186 49q41 10 62.5 47t11.5 78t-47 62.5t-78 11.5l-160 -41q-68 449 -254 639q-31 33 -65.5 56.5t-73.5 39.5q-84 35 -176 31q-80 -2 -154 -41q-68 -35 -119 -97q-111 -127 -170 -378q-23 -94 -35 -205t-18 -240q-2 -23 -2 -43v-41l-113 -31 q-41 -10 -62.5 -46.5t-10.5 -77.5zM403 1769q2 4 15.5 33t36.5 66q78 127 168 139q29 4 69.5 -2t83.5 -41q25 -18 43.5 -39.5t34.5 -42.5q8 -10 18.5 -22.5t18.5 -20.5q8 4 17.5 15.5t19.5 29.5q14 27 20 43q4 10 6 21q10 41 47 62.5t78 10.5q41 -10 62.5 -46t11.5 -77 q-2 -10 -15.5 -48t-41 -83t-71.5 -83.5t-110 -49.5q-27 -4 -66.5 2t-80.5 39q-23 18 -40 39t-34 41l-18 22.5t-21 20.5q-14 -16 -31.5 -47t-29.5 -59q-12 -29 -38.5 -46.5t-55.5 -17.5q-23 0 -39 8q-41 16 -57.5 55.5t-0.5 77.5zM465 573q2 7 2 23q10 236 49 408 q45 199 123 290q57 63 127 66q94 2 162 -68q88 -88 147 -293q16 -57 29.5 -119.5t23.5 -134.5z" />
<glyph unicode="&#xc4;" horiz-adv-x="1673" d="M74 365q-10 41 11 77.5t62 46.5l113 31v41t2 43q6 129 18.5 239.5t34.5 205.5q59 252 170 378q51 61 119 97q74 39 154 41q92 4 176 -31q39 -16 73.5 -40t65.5 -56q186 -190 254 -639l160 41q41 10 78 -11.5t47 -62.5t-11.5 -78t-62.5 -47l-186 -49q10 -109 13 -206 t3 -171t-2 -119t-2 -49q-2 -41 -31.5 -68.5t-70.5 -27.5h-7q-41 4 -69.5 34.5t-26.5 73.5l2 39t2 104.5t-2 152.5t-10 186l-688 -181q4 -119 9 -194.5t5 -77.5q4 -43 -23.5 -75.5t-68.5 -37.5q-43 -4 -76 24t-37 71q0 4 -4 68.5t-8 168.5l-61 -14q-8 -4 -25 -4 q-35 0 -62.5 20.5t-37.5 55.5zM465 573l663 172q-10 72 -23 134.5t-30 119.5q-59 205 -147 293q-68 70 -162 68q-70 -2 -127 -66q-78 -92 -123 -290q-39 -172 -49 -408q0 -16 -2 -23zM496 1739q0 45 30.5 75.5t73.5 30.5q45 0 76 -30.5t31 -75.5q0 -43 -31 -74t-76 -31 q-43 0 -73.5 31t-30.5 74zM885 1739q0 45 30.5 75.5t73.5 30.5q45 0 76 -30.5t31 -75.5q0 -43 -31 -74t-76 -31q-43 0 -73.5 31t-30.5 74z" />
<glyph unicode="&#xc5;" horiz-adv-x="1673" d="M74 365q10 -35 37.5 -55.5t62.5 -20.5q16 0 25 4l61 14q4 -104 8 -168.5t4 -68.5q4 -43 37 -71t76 -24q41 4 68.5 37t23.5 76q0 2 -5 78t-9 194l688 181q8 -98 10 -185.5t2 -153t-2 -104.5l-2 -39q-2 -43 26.5 -73.5t69.5 -34.5h7q41 0 70.5 27.5t31.5 68.5q0 4 2 49 t2 119t-3 171t-13 206l186 49q41 10 62.5 47t11.5 78t-47 62.5t-78 11.5l-160 -41q-68 449 -254 639q-31 33 -65.5 56.5t-73.5 39.5q-84 35 -176 31q-80 -2 -154 -41q-68 -35 -119 -97q-111 -127 -170 -378q-23 -94 -35 -205t-18 -240q-2 -23 -2 -43v-41l-113 -31 q-41 -10 -62.5 -46.5t-10.5 -77.5zM465 573q2 7 2 23q10 236 49 408q45 199 123 290q57 63 127 66q94 2 162 -68q88 -88 147 -293q16 -57 29.5 -119.5t23.5 -134.5zM477 1905q4 59 27.5 108t64.5 84q78 66 183 60q102 -4 170 -78q27 -29 50 -78t19 -127t-38.5 -136.5 t-94.5 -88.5q-58 -29 -117 -29q-76 0 -147 45q-59 39 -90 101.5t-27 138.5zM641 1894q-4 -39 11.5 -60.5t31.5 -31.5q23 -16 49.5 -17t48.5 9q43 20 45 88q2 37 -8 58.5t-24.5 34t-28.5 15.5t-23 3h-6q-27 0 -59.5 -19.5t-36.5 -79.5z" />
<glyph unicode="&#xc6;" horiz-adv-x="2349" d="M74 365q-10 41 11 77.5t62 46.5l113 31v41t2 43q6 129 18.5 239.5t34.5 205.5q59 252 170 378q51 61 119 97q74 39 154 41q92 4 176 -31q66 -29 119 -76l20 4l998 94q43 4 75.5 -23.5t36.5 -68.5q4 -43 -23.5 -75.5t-68.5 -36.5l-745 -70l10 -524l590 84q41 6 74.5 -19.5 t39.5 -66.5t-19.5 -76t-66.5 -41l-614 -88l8 -428l801 63q41 4 73.5 -23.5t36.5 -70.5q4 -41 -24.5 -73.5t-69.5 -36.5l-1073 -84h-8q-41 0 -69.5 26.5t-33.5 67.5q-4 43 24 74.5t71 35.5l67 4l-8 416q-6 -2 -14 -2q-23 0 -41 6l-637 -166q4 -119 9 -194.5t5 -77.5 q4 -43 -23.5 -75.5t-68.5 -37.5q-43 -4 -76 24t-37 71q0 4 -4 68.5t-8 168.5l-61 -14q-8 -4 -25 -4q-35 0 -62.5 20.5t-37.5 55.5zM465 573l663 172q-10 72 -23 134.5t-30 119.5q-59 205 -147 293q-68 70 -162 68q-70 -2 -127 -66q-78 -92 -123 -290q-39 -172 -49 -408 q0 -16 -2 -23z" />
<glyph unicode="&#xc7;" horiz-adv-x="1394" d="M76 553q12 154 67 309q59 164 152.5 302.5t210.5 230.5q154 123 321 141q190 23 367 -92q37 -23 46 -65t-13 -76q-23 -35 -65 -44.5t-77 13.5q-225 141 -452 -37q-92 -74 -170 -189.5t-127 -250.5q-47 -133 -55.5 -256t22.5 -211q57 -166 262 -166q223 2 412 274 q37 53 64.5 105.5t46 92.5t28.5 66l10 25q14 41 51 59t78 4t59.5 -51t4.5 -78q0 -4 -11.5 -33.5t-33 -76.5t-54 -106.5t-75.5 -123.5q-104 -152 -230 -241q-129 -92 -264 -113v-18q25 4 46.5 4t43.5 -2q111 -12 179 -86q59 -63 67 -152.5t-35 -175.5q-57 -113 -174 -172 q-102 -49 -231 -49h-32.5t-33.5 2q-43 4 -69.5 37t-22.5 76q4 41 37 68.5t74 23.5q72 -6 121 5t79.5 29.5t47 39t22.5 32.5q14 29 13 55.5t-15 43.5q-16 16 -60 19t-120 -26q-49 -23 -96 11q-20 14 -33 35.5t-13 48.5v153q-100 23 -174 72q-111 78 -161 219q-47 131 -35 295 z" />
<glyph unicode="&#xc8;" horiz-adv-x="1454" d="M86 1350q-4 43 22.5 75.5t69.5 36.5l998 94q43 4 75.5 -23.5t36.5 -68.5q4 -43 -23.5 -75.5t-68.5 -36.5l-745 -70l10 -524l590 84q41 6 74.5 -19.5t39.5 -66.5t-19.5 -76t-66.5 -41l-614 -88l8 -428l801 63q41 4 73.5 -23.5t36.5 -70.5q4 -41 -24.5 -73.5t-69.5 -36.5 l-1073 -84h-8q-41 0 -69.5 26.5t-33.5 67.5q-4 43 24 74.5t71 35.5l67 4l-8 416q-6 -2 -14 -2q-39 0 -67.5 24.5t-35.5 63.5q-6 41 19.5 76t68.5 41l25 4l-8 533l-51 -5h-11q-39 0 -67.5 26t-32.5 67zM518 1834q0 42 24.5 70.5t65.5 36t82 -25.5l205 -172q41 -35 41 -76 t-24.5 -69.5t-65.5 -37t-82 26.5l-205 172q-41 33 -41 75z" />
<glyph unicode="&#xc9;" horiz-adv-x="1454" d="M86 1350q-4 43 22.5 75.5t69.5 36.5l998 94q43 4 75.5 -23.5t36.5 -68.5q4 -43 -23.5 -75.5t-68.5 -36.5l-745 -70l10 -524l590 84q41 6 74.5 -19.5t39.5 -66.5t-19.5 -76t-66.5 -41l-614 -88l8 -428l801 63q41 4 73.5 -23.5t36.5 -70.5q4 -41 -24.5 -73.5t-69.5 -36.5 l-1073 -84h-8q-41 0 -69.5 26.5t-33.5 67.5q-4 43 24 74.5t71 35.5l67 4l-8 416q-6 -2 -14 -2q-39 0 -67.5 24.5t-35.5 63.5q-6 41 19.5 76t68.5 41l25 4l-8 533l-51 -5h-11q-39 0 -67.5 26t-32.5 67zM518 1667q0 41 41 76l205 172q41 33 82 25.5t65.5 -36t24.5 -70.5 t-41 -75l-205 -172q-41 -35 -82 -26.5t-65.5 37t-24.5 69.5z" />
<glyph unicode="&#xca;" horiz-adv-x="1454" d="M86 1350q4 -41 32.5 -67t67.5 -26h11l51 5l8 -533l-25 -4q-43 -6 -68.5 -41t-19.5 -76q6 -39 35 -63.5t68 -24.5q8 0 14 2l8 -416l-67 -4q-43 -4 -71 -35.5t-24 -74.5q4 -41 33 -67.5t70 -26.5h8l1073 84q41 4 70 36.5t24 73.5q-4 43 -36.5 70.5t-73.5 23.5l-801 -63 l-8 428l614 88q41 6 66.5 41t19.5 76t-39.5 66.5t-74.5 19.5l-590 -84l-10 524l745 70q41 4 68.5 36.5t23.5 75.5q-4 41 -36.5 69t-75.5 23l-998 -94q-43 -4 -69.5 -36.5t-22.5 -75.5zM338 1710q0 37 19.5 62.5t45.5 52.5l82 78q43 41 79 71.5t38 32.5q29 27 69 27t68 -27 l248 -223q31 -29 34 -71t-26 -73q-30 -34 -77 -34q-37 0 -68 26l-180 162q-47 -43 -87 -81t-55 -54q-14 -23 -36.5 -37t-51.5 -14q-43 0 -72.5 30.5t-29.5 71.5z" />
<glyph unicode="&#xcb;" horiz-adv-x="1454" d="M86 1350q-4 43 22.5 75.5t69.5 36.5l998 94q43 4 75.5 -23.5t36.5 -68.5q4 -43 -23.5 -75.5t-68.5 -36.5l-745 -70l10 -524l590 84q41 6 74.5 -19.5t39.5 -66.5t-19.5 -76t-66.5 -41l-614 -88l8 -428l801 63q41 4 73.5 -23.5t36.5 -70.5q4 -41 -24.5 -73.5t-69.5 -36.5 l-1073 -84h-8q-41 0 -69.5 26.5t-33.5 67.5q-4 43 24 74.5t71 35.5l67 4l-8 416q-6 -2 -14 -2q-39 0 -67.5 24.5t-35.5 63.5q-6 41 19.5 76t68.5 41l25 4l-8 533l-51 -5h-11q-39 0 -67.5 26t-32.5 67zM426 1739q0 45 30.5 75.5t73.5 30.5q45 0 76 -30.5t31 -75.5 q0 -43 -31 -74t-76 -31q-43 0 -73.5 31t-30.5 74zM815 1739q0 45 31 75.5t74 30.5q45 0 75.5 -30.5t30.5 -75.5q0 -43 -30.5 -74t-75.5 -31q-43 0 -74 31t-31 74z" />
<glyph unicode="&#xcc;" horiz-adv-x="1374" d="M59 1333q-4 43 21.5 77t66.5 38l451 59v27q4 43 35 71.5t74 24.5q41 -2 67.5 -29.5t28.5 -66.5l393 51q41 6 75 -20.5t40 -67.5q4 -41 -21.5 -74.5t-66.5 -40.5l-430 -55l-58 -1141h271q41 0 71.5 -29.5t30.5 -72.5q0 -41 -30.5 -71.5t-71.5 -30.5h-308q-29 -29 -71 -29 h-6q-20 0 -37 8t-31 21h-309q-43 0 -73 30.5t-30 71.5q0 43 30 72.5t73 29.5h286l58 1114l-414 -55h-12q-39 0 -67.5 24.5t-35.5 63.5zM477 1957q0 42 24.5 70.5t65.5 36t82 -25.5l205 -172q41 -35 41 -76t-24.5 -69.5t-65.5 -37t-82 26.5l-205 172q-41 33 -41 75z" />
<glyph unicode="&#xcd;" horiz-adv-x="1374" d="M59 1333q-4 43 21.5 77t66.5 38l451 59v27q4 43 35 71.5t74 24.5q41 -2 67.5 -29.5t28.5 -66.5l393 51q41 6 75 -20.5t40 -67.5q4 -41 -21.5 -74.5t-66.5 -40.5l-430 -55l-58 -1141h271q41 0 71.5 -29.5t30.5 -72.5q0 -41 -30.5 -71.5t-71.5 -30.5h-308q-29 -29 -71 -29 h-6q-20 0 -37 8t-31 21h-309q-43 0 -73 30.5t-30 71.5q0 43 30 72.5t73 29.5h286l58 1114l-414 -55h-12q-39 0 -67.5 24.5t-35.5 63.5zM498 1788q0 41 41 76l204 172q41 33 82 25.5t65.5 -36t24.5 -70.5t-41 -75l-204 -172q-41 -35 -82 -26.5t-65.5 37t-24.5 69.5z" />
<glyph unicode="&#xce;" horiz-adv-x="1374" d="M59 1333q6 -39 35 -63.5t68 -24.5h12l414 55l-58 -1114h-286q-43 0 -73 -29.5t-30 -72.5q0 -41 30 -71.5t73 -30.5h309q14 -12 30.5 -20.5t37.5 -8.5h6q43 0 71 29h308q41 0 71.5 30.5t30.5 71.5q0 43 -30.5 72.5t-71.5 29.5h-271l58 1141l430 55q41 6 66.5 40t21.5 75 q-6 41 -40 67.5t-75 20.5l-393 -51q-2 39 -28.5 66.5t-67.5 29.5q-43 4 -74 -24.5t-35 -71.5v-27l-451 -59q-41 -4 -66.5 -38t-21.5 -77zM360 1735q0 37 19.5 62.5t46.5 51.5l82 78q43 41 79 72t38 33q29 27 68.5 26.5t68.5 -26.5l248 -224q31 -29 34 -70.5t-26 -72.5 q-31 -35 -78 -35q-37 0 -68 27l-180 162q-47 -43 -87 -81t-54 -55q-14 -23 -36.5 -37t-51.5 -14q-43 0 -73 31t-30 72z" />
<glyph unicode="&#xcf;" horiz-adv-x="1374" d="M59 1333q-4 43 21.5 77t66.5 38l451 59v27q4 43 35 71.5t74 24.5q41 -2 67.5 -29.5t28.5 -66.5l393 51q41 6 75 -20.5t40 -67.5q4 -41 -21.5 -74.5t-66.5 -40.5l-430 -55l-58 -1141h271q41 0 71.5 -29.5t30.5 -72.5q0 -41 -30.5 -71.5t-71.5 -30.5h-308q-29 -29 -71 -29 h-6q-20 0 -37 8t-31 21h-309q-43 0 -73 30.5t-30 71.5q0 43 30 72.5t73 29.5h286l58 1114l-414 -55h-12q-39 0 -67.5 24.5t-35.5 63.5zM387 1739q0 45 31 75.5t74 30.5q45 0 75.5 -30.5t30.5 -75.5q0 -43 -30.5 -74t-75.5 -31q-43 0 -74 31t-31 74zM776 1739q0 45 31 75.5 t74 30.5q45 0 75.5 -30.5t30.5 -75.5q0 -43 -30.5 -74t-75.5 -31q-43 0 -74 31t-31 74z" />
<glyph unicode="&#xd0;" horiz-adv-x="1949" d="M57 1085q-14 41 5.5 79t60.5 50q123 39 235.5 69t221.5 52v127q0 43 30.5 73t71.5 30q43 0 72.5 -30t29.5 -73v-94q111 14 209.5 17.5t190.5 -3.5q199 -14 349 -76.5t243 -168.5q104 -123 116 -281q12 -147 -63 -299q-66 -131 -185.5 -241.5t-281.5 -188.5 q-86 -41 -181.5 -70.5t-197.5 -48.5q-98 -18 -199 -24v-35q0 -43 -29.5 -73t-72.5 -30q-41 0 -71.5 30t-30.5 73v31q-16 0 -30.5 1t-31.5 1q-43 4 -71.5 35.5t-24.5 72.5q2 43 33.5 71.5t74.5 24.5q12 0 24.5 -1t25.5 -1v408l-158 -4q-53 -2 -81 29.5t-30 69.5t23.5 71 t79.5 35l166 4v329q-92 -20 -190.5 -45.5t-203.5 -60.5q-41 -12 -78.5 6t-50.5 59zM784 188q274 23 490 123q131 63 227.5 149.5t145.5 186.5q14 29 27.5 70t15.5 88t-12.5 98t-57.5 101q-133 152 -453 174q-176 12 -383 -15v-358l131 4q53 2 81 -29.5t29 -69.5t-23.5 -71 t-77.5 -35l-140 -4v-412z" />
<glyph unicode="&#xd1;" horiz-adv-x="1548" d="M96 74q0 -43 31 -73t72 -30q43 0 72.5 30t29.5 73v796q4 -4 5 -10t5 -12q115 -274 238 -463q162 -248 330 -332q74 -37 151 -43q78 -6 162 27q113 43 178 158q53 96 74 231q14 106 9 241.5t-32 297.5q-20 135 -49 259t-55.5 221t-45 156.5t-20.5 65.5q-14 41 -51 59.5 t-78 4.5q-41 -12 -60.5 -50.5t-4.5 -78.5l19 -58q18 -57 42.5 -150.5t52 -213t48.5 -248.5q23 -147 28.5 -266t-8.5 -211q-25 -190 -123 -228q-72 -29 -147 11q-57 29 -120 94t-128 164q-111 172 -221 430q-47 111 -84 214t-63.5 183t-40.5 129l-15 49q-10 39 -42 59.5 t-69 16.5q-39 -6 -64.5 -35t-25.5 -67v-1401zM299 1712q-16 39 0 78q2 4 15.5 32.5t35.5 65.5q78 127 168 140q29 4 70 -2.5t84 -40.5q25 -18 43 -40t35 -42l18 -22.5t18 -20.5q8 4 17.5 15t19.5 30q14 27 21 43q4 10 6 20q10 41 47 62.5t78 11.5t62.5 -46t11.5 -77 q-2 -10 -15.5 -48t-41 -83t-71.5 -84t-110 -49q-27 -4 -66.5 2t-80.5 39q-23 18 -40.5 38.5t-33.5 41.5q-8 10 -18.5 22t-20.5 21q-14 -16 -31.5 -47t-30.5 -60q-12 -29 -38.5 -46t-55.5 -17q-23 0 -39 8q-41 16 -57 55z" />
<glyph unicode="&#xd2;" d="M82 561q-8 170 43 342t151 320q111 166 263.5 266t328.5 125q41 6 76 -19.5t41 -66.5q4 -43 -21.5 -77t-66.5 -40q-141 -20 -257 -104t-197 -203t-121.5 -259t-34.5 -274q2 -59 19.5 -132.5t62.5 -139.5t125.5 -114t210.5 -54q133 0 228 42t159.5 99.5t102.5 119 t54 102.5q31 76 43.5 156.5t5 154.5t-33 137.5t-68.5 108.5q-45 45 -99.5 62t-111.5 16t-113.5 -15t-105.5 -33q-41 -16 -79 0.5t-54 55.5q-16 41 0 78.5t55 54.5q135 55 241.5 62t186.5 -12.5t135 -56t90 -69.5q135 -137 160 -363q10 -102 -6 -208.5t-57 -206.5 q-43 -104 -110.5 -192.5t-156.5 -151.5q-96 -70 -210 -107q-119 -39 -259 -39h-6q-143 6 -262 60q-111 51 -192 145q-147 170 -160 430zM647 1940.5q0 41.5 24.5 70.5t65.5 36t82 -26l205 -172q41 -35 41 -75.5t-24.5 -69.5t-65.5 -37t-82 27l-205 172q-41 33 -41 74.5z" />
<glyph unicode="&#xd3;" d="M82 561q-8 170 43 342t151 320q111 166 263.5 266t328.5 125q41 6 76 -19.5t41 -66.5q4 -43 -21.5 -77t-66.5 -40q-141 -20 -257 -104t-197 -203t-121.5 -259t-34.5 -274q2 -59 19.5 -132.5t62.5 -139.5t125.5 -114t210.5 -54q133 0 228 42t159.5 99.5t102.5 119 t54 102.5q31 76 43.5 156.5t5 154.5t-33 137.5t-68.5 108.5q-45 45 -99.5 62t-111.5 16t-113.5 -15t-105.5 -33q-41 -16 -79 0.5t-54 55.5q-16 41 0 78.5t55 54.5q135 55 241.5 62t186.5 -12.5t135 -56t90 -69.5q135 -137 160 -363q10 -102 -6 -208.5t-57 -206.5 q-43 -104 -110.5 -192.5t-156.5 -151.5q-96 -70 -210 -107q-119 -39 -259 -39h-6q-143 6 -262 60q-111 51 -192 145q-147 170 -160 430zM627 1778q0 41 41 75l204 172q41 33 82 26t65.5 -35.5t24.5 -70.5t-40 -75l-205 -172q-41 -35 -82 -27t-65.5 37t-24.5 70z" />
<glyph unicode="&#xd4;" d="M82 561q12 -260 160 -430q82 -94 192 -145q119 -53 262 -60h6q139 0 259 39q115 37 210 107q88 63 156 151t111 193q41 100 57 206.5t6 208.5q-25 226 -160 363q-35 33 -90 69.5t-135 56t-186.5 12.5t-241.5 -62q-39 -16 -55.5 -54t0.5 -79q16 -39 54 -55.5t79 -0.5 q49 18 105.5 32.5t113.5 15.5t111.5 -16t99.5 -62q43 -45 68.5 -108.5t33 -137.5t-5 -155t-43.5 -156q-16 -41 -54 -102.5t-102.5 -119t-159.5 -99.5t-228 -42q-129 6 -210 54t-126 114t-62.5 139.5t-19.5 132.5q-6 133 34.5 273.5t121.5 259.5t197 203t257 104 q41 6 66.5 40t21.5 77q-6 41 -41 66.5t-76 19.5q-176 -25 -328.5 -125t-263.5 -266q-100 -147 -151 -319.5t-43 -342.5zM522 1774q0 37 19.5 62.5t46.5 51.5l82 78q43 41 78.5 71.5t37.5 33.5q29 27 69 26.5t69 -26.5l247 -224q31 -29 34 -70.5t-25 -72.5q-31 -35 -78 -35 q-37 0 -68 27l-180 162q-47 -43 -87 -81t-54 -55q-14 -23 -37 -37t-51 -14q-43 0 -73 31t-30 72z" />
<glyph unicode="&#xd5;" d="M82 561q12 -260 160 -430q82 -94 192 -145q119 -53 262 -60h6q139 0 259 39q115 37 210 107q88 63 156 151t111 193q41 100 57 206.5t6 208.5q-25 226 -160 363q-35 33 -90 69.5t-135 56t-186.5 12.5t-241.5 -62q-39 -16 -55.5 -54t0.5 -79q16 -39 54 -55.5t79 -0.5 q49 18 105.5 32.5t113.5 15.5t111.5 -16t99.5 -62q43 -45 68.5 -108.5t33 -137.5t-5 -155t-43.5 -156q-16 -41 -54 -102.5t-102.5 -119t-159.5 -99.5t-228 -42q-129 6 -210 54t-126 114t-62.5 139.5t-19.5 132.5q-6 133 34.5 273.5t121.5 259.5t197 203t257 104 q41 6 66.5 40t21.5 77q-6 41 -41 66.5t-76 19.5q-176 -25 -328.5 -125t-263.5 -266q-100 -147 -151 -319.5t-43 -342.5zM456.5 1732.5q-16.5 39.5 0.5 77.5q2 4 15 33t36 66q78 127 168 139q29 4 69.5 -2t83.5 -41q25 -18 43.5 -39.5t34.5 -42.5q8 -10 18.5 -22.5 t18.5 -20.5q8 4 17.5 15.5t19.5 29.5q14 27 20 43q4 10 7 21q10 41 47 62.5t78 10.5q41 -10 62.5 -46t10.5 -77q-2 -10 -15 -48t-41 -83t-72 -83.5t-109 -49.5q-27 -4 -67 2t-81 39q-23 18 -40 39t-33 41q-8 10 -18.5 22.5t-20.5 20.5q-14 -16 -32 -47t-30 -59 q-12 -29 -38.5 -46.5t-55.5 -17.5q-23 0 -39 8q-41 16 -57.5 55.5z" />
<glyph unicode="&#xd6;" d="M82 561q-8 170 43 342t151 320q111 166 263.5 266t328.5 125q41 6 76 -19.5t41 -66.5q4 -43 -21.5 -77t-66.5 -40q-141 -20 -257 -104t-197 -203t-121.5 -259t-34.5 -274q2 -59 19.5 -132.5t62.5 -139.5t125.5 -114t210.5 -54q133 0 228 42t159.5 99.5t102.5 119 t54 102.5q31 76 43.5 156.5t5 154.5t-33 137.5t-68.5 108.5q-45 45 -99.5 62t-111.5 16t-113.5 -15t-105.5 -33q-41 -16 -79 0.5t-54 55.5q-16 41 0 78.5t55 54.5q135 55 241.5 62t186.5 -12.5t135 -56t90 -69.5q135 -137 160 -363q10 -102 -6 -208.5t-57 -206.5 q-43 -104 -110.5 -192.5t-156.5 -151.5q-96 -70 -210 -107q-119 -39 -259 -39h-6q-143 6 -262 60q-111 51 -192 145q-147 170 -160 430zM569 1780q0 45 31 75.5t74 30.5q45 0 75.5 -30.5t30.5 -75.5q0 -43 -30.5 -74t-75.5 -31q-43 0 -74 31t-31 74zM958 1780q0 45 31 75.5 t74 30.5q45 0 75.5 -30.5t30.5 -75.5q0 -43 -30.5 -74t-75.5 -31q-43 0 -74 31t-31 74z" />
<glyph unicode="&#xd8;" d="M-11 27q-7 41 27 82l136 159q-63 133 -70 293q-8 170 43 342t151 320q111 166 263.5 266t328.5 125q41 6 76 -19.5t41 -66.5q4 -43 -21.5 -77t-66.5 -40q-141 -20 -257 -104t-197 -203t-121.5 -259t-34.5 -274q2 -29 5 -60.5t11 -64.5l569 668q-29 -6 -55 -14t-51 -19 q-41 -16 -79 0.5t-54 55.5q-16 41 0 78.5t55 54.5q111 45 203 58t166 3l176 207q35 41 76 41t70.5 -24.5t36.5 -65.5t-27 -82l-127 -150q25 -16 44 -31.5t35 -31.5q135 -137 160 -363q10 -102 -6 -208.5t-57 -206.5q-43 -104 -110.5 -192.5t-156.5 -151.5q-96 -70 -210 -107 q-119 -39 -259 -39h-6q-143 6 -262 60q-90 39 -162 110l-100 -119q-35 -41 -77 -40.5t-70.5 25t-35.5 65.5zM406 252q47 -49 119.5 -83t179.5 -38q133 0 228 42t159.5 99.5t102.5 119t54 102.5q31 76 43.5 156.5t5 154.5t-33 137.5t-68.5 108.5q-35 33 -70 49z" />
<glyph unicode="&#xd9;" horiz-adv-x="1335" d="M82 481q0 88 10 191.5t31 220.5q18 98 38.5 186t39 156t31 107.5t14.5 43.5q12 41 50 59.5t79 6.5t59.5 -50t5.5 -79l-11 -39t-28.5 -102.5t-38 -148.5t-36.5 -177q-29 -156 -36 -266.5t-1 -185t20.5 -117.5t28.5 -66q16 -25 35.5 -38t48.5 -17q16 -2 40.5 2t59.5 31 q88 68 172 251t154 463q29 111 49.5 212.5t34.5 179t20 125.5l6 47q4 41 34 66.5t71 23.5t68.5 -30t29.5 -69l72 -1413q2 -43 -26.5 -73.5t-71.5 -34.5h-5q-41 0 -70.5 28.5t-31.5 69.5l-33 635q-23 -80 -48 -150.5t-54 -134.5q-111 -254 -246 -358q-121 -92 -252 -74 q-147 18 -229 148q-84 133 -84 370zM459 1834q0 42 24.5 70.5t65.5 36t82 -25.5l205 -172q41 -35 41 -76t-25 -69.5t-66 -37t-81 26.5l-205 172q-41 33 -41 75z" />
<glyph unicode="&#xda;" horiz-adv-x="1335" d="M82 481q0 88 10 191.5t31 220.5q18 98 38.5 186t39 156t31 107.5t14.5 43.5q12 41 50 59.5t79 6.5t59.5 -50t5.5 -79l-11 -39t-28.5 -102.5t-38 -148.5t-36.5 -177q-29 -156 -36 -266.5t-1 -185t20.5 -117.5t28.5 -66q16 -25 35.5 -38t48.5 -17q16 -2 40.5 2t59.5 31 q88 68 172 251t154 463q29 111 49.5 212.5t34.5 179t20 125.5l6 47q4 41 34 66.5t71 23.5t68.5 -30t29.5 -69l72 -1413q2 -43 -26.5 -73.5t-71.5 -34.5h-5q-41 0 -70.5 28.5t-31.5 69.5l-33 635q-23 -80 -48 -150.5t-54 -134.5q-111 -254 -246 -358q-121 -92 -252 -74 q-147 18 -229 148q-84 133 -84 370zM561 1667q0 41 41 76l205 172q41 33 82 25.5t65.5 -36t24.5 -70.5t-41 -75l-205 -172q-41 -35 -82 -26.5t-65.5 37t-24.5 69.5z" />
<glyph unicode="&#xdb;" horiz-adv-x="1335" d="M82 481q0 -238 84 -370q82 -129 229 -148q131 -18 252 74q135 104 246 358q29 63 54.5 134t47.5 151l33 -635q2 -41 32 -69.5t70 -28.5h5q43 4 71.5 34.5t26.5 73.5l-72 1413q-2 41 -29.5 69t-68.5 30t-70.5 -23.5t-34.5 -66.5l-6 -47q-6 -48 -20 -125.5t-34.5 -179 t-49.5 -212.5q-70 -281 -154 -464t-172 -250q-35 -27 -59.5 -31t-40.5 -2q-29 4 -48.5 17.5t-35.5 37.5q-14 23 -28.5 66t-20.5 117.5t1 185t36 266.5q16 92 36.5 177t38 148.5t28.5 102.5l11 39q12 41 -6 79t-59 50t-79 -6.5t-50 -59.5q-2 -4 -14.5 -43.5t-31 -107.5 t-39 -156t-38.5 -186q-20 -117 -30.5 -220.5t-10.5 -191.5zM319 1712q0 37 19.5 62.5t46.5 52.5l82 78q43 41 79 71.5t38 32.5q29 27 68.5 27t68.5 -27l248 -223q31 -29 34 -71t-26 -73q-31 -34 -78 -34q-37 0 -68 26l-180 162q-47 -43 -87 -81t-54 -54q-14 -23 -36.5 -37 t-51.5 -14q-43 0 -73 30.5t-30 71.5z" />
<glyph unicode="&#xdc;" horiz-adv-x="1335" d="M82 481q0 88 10 191.5t31 220.5q18 98 38.5 186t39 156t31 107.5t14.5 43.5q12 41 50 59.5t79 6.5t59.5 -50t5.5 -79l-11 -39t-28.5 -102.5t-38 -148.5t-36.5 -177q-29 -156 -36 -266.5t-1 -185t20.5 -117.5t28.5 -66q16 -25 35.5 -38t48.5 -17q16 -2 40.5 2t59.5 31 q88 68 172 251t154 463q29 111 49.5 212.5t34.5 179t20 125.5l6 47q4 41 34 66.5t71 23.5t68.5 -30t29.5 -69l72 -1413q2 -43 -26.5 -73.5t-71.5 -34.5h-5q-41 0 -70.5 28.5t-31.5 69.5l-33 635q-23 -80 -48 -150.5t-54 -134.5q-111 -254 -246 -358q-121 -92 -252 -74 q-147 18 -229 148q-84 133 -84 370zM367 1739q0 45 30.5 75.5t73.5 30.5q45 0 76 -30.5t31 -75.5q0 -43 -31 -74t-76 -31q-43 0 -73.5 31t-30.5 74zM756 1739q0 45 30.5 75.5t73.5 30.5q45 0 76 -30.5t31 -75.5q0 -43 -31 -74t-76 -31q-43 0 -73.5 31t-30.5 74z" />
<glyph unicode="&#xdd;" horiz-adv-x="1300" d="M39 481q-2 88 8 191.5t33 220.5q18 98 38.5 186t39 156t31 107.5t12.5 43.5q14 41 51 59.5t78 6.5t60.5 -50t4.5 -79q0 -2 -11 -40t-28.5 -102.5t-38 -148.5t-36.5 -176q-29 -156 -35 -266.5t0 -185t20.5 -117.5t28.5 -66q31 -49 84 -55q16 -2 39.5 2t58.5 31 q88 68 172 250t156 462q27 111 47 212.5t34.5 180t20.5 126.5l6 47q6 41 36 66.5t71 23.5t68.5 -30t29.5 -69l90 -1818q4 -43 -25.5 -74t-70.5 -35h-6q-41 0 -69.5 29t-32.5 70l-52 1040q-25 -80 -49 -150.5t-53 -134.5q-111 -254 -248 -358q-96 -76 -209 -76h-20.5t-20.5 2 q-150 18 -231 148q-82 131 -82 370zM461 1667q0 41 41 76l205 172q41 33 81.5 25.5t65.5 -36t25 -70.5t-41 -75l-205 -172q-41 -35 -82 -26.5t-65.5 37t-24.5 69.5z" />
<glyph unicode="&#xde;" horiz-adv-x="1253" d="M100 61v1258q0 43 31 72.5t72 29.5q43 0 72.5 -29.5t29.5 -72.5v-322q98 104 203 185q94 72 187 113.5t179 54.5q80 10 149 -6.5t122 -61.5q62 -49 80 -141q16 -82 -6 -174q-29 -111 -105 -215q-84 -117 -215 -213q-238 -174 -594 -279v-199q0 -43 -29.5 -72.5 t-72.5 -29.5q-41 0 -72 29.5t-31 72.5zM305 475q143 45 261 102.5t210 124.5q66 49 110 95.5t71.5 87.5t42 74.5t20.5 56.5q12 49 5 77.5t-11 32.5q-23 18 -54.5 21.5t-58.5 -0.5q-53 -6 -120.5 -37t-144.5 -88t-161 -144t-170 -208v-195z" />
<glyph unicode="&#xdf;" horiz-adv-x="1331" d="M92 45q0 2 7 91t16.5 235.5t17.5 335t8 385.5q0 115 37 184.5t76 107.5q49 47 113.5 73t132.5 26q123 0 209 -74q98 -82 98 -219q0 -57 -24.5 -125t-57.5 -145q-16 -39 -31.5 -76t-25.5 -72q-10 -29 -13 -43h4q205 43 357 6q150 -35 225 -141q59 -80 55 -186 q-4 -100 -57 -185q-41 -70 -105.5 -124t-146.5 -89q-90 -41 -193.5 -53t-215.5 2q-41 6 -68 40t-21 75q4 41 38 67.5t77 20.5q168 -23 301 35q109 47 160 131q25 41 28 79.5t-18 67.5q-31 43 -106 62q-53 12 -122 10t-149 -19q-63 -12 -110 -4q-41 8 -64.5 24.5t-38.5 33.5 q-41 53 -37.5 113.5t15.5 107.5t31.5 96t42.5 98q20 51 42.5 108.5t22.5 84.5q0 31 -13.5 49t-30.5 26.5t-34.5 10.5t-23.5 2q-61 0 -103 -41q-51 -49 -51 -145q0 -201 -8 -391.5t-17.5 -340t-16.5 -241.5t-7 -94q-4 -39 -33.5 -66t-68.5 -27h-11q-41 4 -68.5 37t-23.5 76z " />
<glyph unicode="&#xe0;" horiz-adv-x="1169" d="M49 520q0 199 72 346q70 145 186 207q86 47 176 44t168 -54q102 -66 156 -197q51 -133 39 -305q-4 -41 -36 -69.5t-75 -24.5q-41 4 -69.5 36t-24.5 75q8 113 -18.5 195.5t-81.5 117.5q-63 41 -135 4q-59 -35 -101 -117q-51 -106 -51 -258q0 -137 51 -220t146 -99 q53 -10 114.5 6t118.5 55q66 43 113 108.5t73 143.5q10 35 40 54.5t65 15.5t61.5 -28t32.5 -58l61 -385q6 -41 -18.5 -76t-67.5 -41q-41 -8 -75.5 17.5t-40.5 66.5l-17 108q-27 -29 -54.5 -52t-57.5 -44q-92 -61 -187 -84q-66 -16 -123 -16q-39 0 -71 6q-168 29 -266 162 q-102 139 -103 360zM293 1465.5q0 41.5 24.5 70.5t65.5 36t82 -26l205 -172q41 -35 41 -76t-24.5 -69.5t-65.5 -36.5t-82 27l-205 172q-41 33 -41 74.5z" />
<glyph unicode="&#xe1;" horiz-adv-x="1169" d="M49 520q0 199 72 346q70 145 186 207q86 47 176 44t168 -54q102 -66 156 -197q51 -133 39 -305q-4 -41 -36 -69.5t-75 -24.5q-41 4 -69.5 36t-24.5 75q8 113 -18.5 195.5t-81.5 117.5q-63 41 -135 4q-59 -35 -101 -117q-51 -106 -51 -258q0 -137 51 -220t146 -99 q53 -10 114.5 6t118.5 55q66 43 113 108.5t73 143.5q10 35 40 54.5t65 15.5t61.5 -28t32.5 -58l61 -385q6 -41 -18.5 -76t-67.5 -41q-41 -8 -75.5 17.5t-40.5 66.5l-17 108q-27 -29 -54.5 -52t-57.5 -44q-92 -61 -187 -84q-66 -16 -123 -16q-39 0 -71 6q-168 29 -266 162 q-102 139 -103 360zM375 1298q0 41 41 76l205 172q41 33 81.5 26t65.5 -36t25 -71t-41 -74l-205 -172q-41 -35 -82 -27t-65.5 36.5t-24.5 69.5z" />
<glyph unicode="&#xe2;" horiz-adv-x="1169" d="M49 520q0 -221 103 -360q98 -133 266 -162q33 -6 71 -6q57 0 123 16q94 23 187 84q31 20 58.5 44t53.5 52l17 -108q6 -41 41 -66.5t75 -17.5q43 6 68 41t18 76l-61 385q-6 35 -32.5 58.5t-61.5 27.5t-64.5 -15.5t-40.5 -54.5q-27 -78 -73.5 -143.5t-112.5 -108.5 q-57 -39 -118.5 -55.5t-114.5 -5.5q-94 16 -145.5 99t-51.5 220q0 152 51 258q41 82 101 117q72 37 135 -4q55 -35 81.5 -118t18.5 -195q-4 -43 24.5 -75t69.5 -36q43 -4 75 24.5t36 69.5q12 172 -39 305q-53 131 -156 197q-78 51 -168 54t-176 -44q-117 -61 -186 -207 q-72 -147 -72 -346zM135 1282q0 37 19.5 62.5t46.5 52.5l82 78q43 41 78.5 71.5t37.5 32.5q29 27 69 27t69 -27l247 -223q31 -29 34 -71t-25 -73q-31 -34 -78 -34q-37 0 -68 26l-180 162q-47 -43 -87 -81t-54 -54q-14 -23 -37 -37t-51 -14q-43 0 -73 30.5t-30 71.5z" />
<glyph unicode="&#xe3;" horiz-adv-x="1169" d="M49 520q0 -221 103 -360q98 -133 266 -162q33 -6 71 -6q57 0 123 16q94 23 187 84q31 20 58.5 44t53.5 52l17 -108q6 -41 41 -66.5t75 -17.5q43 6 68 41t18 76l-61 385q-6 35 -32.5 58.5t-61.5 27.5t-64.5 -15.5t-40.5 -54.5q-27 -78 -73.5 -143.5t-112.5 -108.5 q-57 -39 -118.5 -55.5t-114.5 -5.5q-94 16 -145.5 99t-51.5 220q0 152 51 258q41 82 101 117q72 37 135 -4q55 -35 81.5 -118t18.5 -195q-4 -43 24.5 -75t69.5 -36q43 -4 75 24.5t36 69.5q12 172 -39 305q-53 131 -156 197q-78 51 -168 54t-176 -44q-117 -61 -186 -207 q-72 -147 -72 -346zM151.5 1241q-16.5 39 0.5 78q2 4 15 32.5t36 65.5q78 127 168 139q29 4 69.5 -2t83.5 -41q25 -18 43.5 -39.5t34.5 -41.5q8 -10 18.5 -22.5t18.5 -20.5q8 4 17.5 15t19.5 30q14 27 20 43q4 10 6 20q10 41 47 62.5t78 11.5t62.5 -46t11.5 -77 q-2 -10 -15.5 -48t-41 -83t-71.5 -84t-109 -49q-27 -4 -67 2t-81 39q-23 18 -40 38.5t-34 41.5q-8 10 -18 22t-21 21q-14 -16 -31.5 -47t-29.5 -60t-38.5 -46t-55.5 -17q-23 0 -39 8q-41 16 -57.5 55z" />
<glyph unicode="&#xe4;" horiz-adv-x="1169" d="M49 520q0 199 72 346q70 145 186 207q86 47 176 44t168 -54q102 -66 156 -197q51 -133 39 -305q-4 -41 -36 -69.5t-75 -24.5q-41 4 -69.5 36t-24.5 75q8 113 -18.5 195.5t-81.5 117.5q-63 41 -135 4q-59 -35 -101 -117q-51 -106 -51 -258q0 -137 51 -220t146 -99 q53 -10 114.5 6t118.5 55q66 43 113 108.5t73 143.5q10 35 40 54.5t65 15.5t61.5 -28t32.5 -58l61 -385q6 -41 -18.5 -76t-67.5 -41q-41 -8 -75.5 17.5t-40.5 66.5l-17 108q-27 -29 -54.5 -52t-57.5 -44q-92 -61 -187 -84q-66 -16 -123 -16q-39 0 -71 6q-168 29 -266 162 q-102 139 -103 360zM182 1329q0 45 31 76t74 31q45 0 75.5 -31t30.5 -76q0 -43 -30.5 -73.5t-75.5 -30.5q-43 0 -74 30.5t-31 73.5zM571 1329q0 45 31 76t74 31q45 0 75.5 -31t30.5 -76q0 -43 -30.5 -73.5t-75.5 -30.5q-43 0 -74 30.5t-31 73.5z" />
<glyph unicode="&#xe5;" horiz-adv-x="1169" d="M49 520q0 -221 103 -360q98 -133 266 -162q33 -6 71 -6q57 0 123 16q94 23 187 84q31 20 58.5 44t53.5 52l17 -108q6 -41 41 -66.5t75 -17.5q43 6 68 41t18 76l-61 385q-6 35 -32.5 58.5t-61.5 27.5t-64.5 -15.5t-40.5 -54.5q-27 -78 -73.5 -143.5t-112.5 -108.5 q-57 -39 -118.5 -55.5t-114.5 -5.5q-94 16 -145.5 99t-51.5 220q0 152 51 258q41 82 101 117q72 37 135 -4q55 -35 81.5 -118t18.5 -195q-4 -43 24.5 -75t69.5 -36q43 -4 75 24.5t36 69.5q12 172 -39 305q-53 131 -156 197q-78 51 -168 54t-176 -44q-117 -61 -186 -207 q-72 -147 -72 -346zM184 1434q4 59 28 108t64 84q78 66 183 60q102 -4 170 -78q27 -29 50 -78t19 -127t-38.5 -136.5t-94.5 -88.5q-57 -29 -116 -29q-76 0 -148 45q-59 39 -90 101.5t-27 138.5zM348 1423q-4 -39 11.5 -60.5t31.5 -31.5q23 -16 49.5 -17t48.5 9q43 20 46 88 q2 37 -8.5 58.5t-25 34t-28.5 15.5t-22 3h-7q-27 0 -59.5 -19.5t-36.5 -79.5z" />
<glyph unicode="&#xe6;" horiz-adv-x="1724" d="M49 520q0 199 72 346q70 145 186 207q86 47 176 44t168 -54q102 -66 156 -197q16 -41 25.5 -86t13.5 -94q29 150 102 250q49 70 119 116t150 62q111 25 204 -27q98 -53 123 -161q18 -84 -14 -170q-35 -86 -115 -160q-135 -123 -366 -205q8 -35 19 -64.5t28 -52.5 q43 -57 114 -69q88 -12 181 35q43 23 63.5 43t24.5 30q12 41 49 60.5t78 7.5t60.5 -49t6.5 -78q-16 -59 -66.5 -110.5t-123.5 -88.5q-119 -57 -238 -57q-16 0 -31.5 1t-31.5 3q-160 25 -252 152q-6 8 -12.5 15t-10.5 15q-25 -27 -52.5 -50t-55.5 -42q-92 -61 -187 -84 q-66 -16 -123 -16q-39 0 -71 6q-168 29 -266 162q-102 139 -103 360zM254 520q0 -137 51 -220t146 -99q53 -10 114.5 6t118.5 55q29 20 55.5 45t48.5 53q-25 25 -30 54q-10 29 0 53q-6 0 -12.5 -1t-10.5 1q-41 4 -69.5 36t-24.5 75q8 113 -18.5 195.5t-81.5 117.5 q-63 41 -135 4q-59 -35 -101 -117q-51 -106 -51 -258zM1040 608q92 37 147.5 73t86.5 64q47 43 61.5 78t7.5 56q-4 18 -20 28.5t-39 10.5q-8 -1 -24 -5q-90 -18 -146.5 -98t-73.5 -207z" />
<glyph unicode="&#xe7;" horiz-adv-x="974" d="M49 520q0 197 70 346q70 143 188 207q84 47 175 44t169 -54q104 -66 154 -197q53 -133 39 -305q-4 -41 -36 -69.5t-73 -24.5q-43 4 -70.5 36t-23.5 75q8 113 -18.5 195.5t-83.5 117.5q-63 41 -133 4q-61 -35 -101 -117q-27 -51 -39 -116.5t-12 -141.5q0 -281 166 -313 q90 -18 196 29q51 23 80 48t35 40q16 41 55 55t80 -2q39 -16 53.5 -56t-1.5 -79q-25 -57 -82.5 -107.5t-135.5 -85.5q-68 -31 -135 -43v-59q25 4 46.5 4t43.5 -2q111 -12 179 -86q59 -63 67 -152.5t-35 -175.5q-57 -113 -174 -172q-102 -49 -231 -49h-32.5t-33.5 2 q-43 4 -69.5 37t-22.5 76q4 41 37 68.5t74 23.5q72 -6 121 5t79.5 29.5t47 39t22.5 32.5q14 29 13 55.5t-15 43.5q-16 16 -60 19t-120 -26q-49 -23 -96 11q-20 14 -33 35.5t-13 48.5v196q-139 35 -221 156q-90 133 -90 354z" />
<glyph unicode="&#xe8;" horiz-adv-x="1013" d="M47 414q-10 41 10.5 77.5t61.5 47.5h2q2 123 31.5 221t85.5 176q49 70 118.5 116t149.5 62q111 25 205 -27q98 -53 123 -161q18 -84 -15 -170q-35 -86 -114 -160q-135 -123 -367 -205q8 -35 19.5 -64.5t27.5 -52.5q43 -57 115 -69q88 -12 180 35q43 23 63.5 43t24.5 30 q12 41 49 60.5t78 7.5t60.5 -49t7.5 -78q-16 -59 -66.5 -110.5t-124.5 -88.5q-119 -57 -237 -57q-16 0 -32 1t-32 3q-160 25 -252 152q-55 76 -80 184q-33 2 -58.5 22.5t-33.5 53.5zM297 1465.5q0 41.5 24.5 70.5t65.5 36t82 -26l205 -172q41 -35 41 -76t-24.5 -69.5 t-65.5 -36.5t-82 27l-205 172q-41 33 -41 74.5zM330 608q92 37 147 73t86 64q47 43 61.5 78t8.5 56q-4 18 -20.5 28.5t-39.5 10.5q-8 -1 -24 -5q-90 -18 -146.5 -98t-72.5 -207z" />
<glyph unicode="&#xe9;" horiz-adv-x="1013" d="M47 414q-10 41 10.5 77.5t61.5 47.5h2q2 123 31.5 221t85.5 176q49 70 118.5 116t149.5 62q111 25 205 -27q98 -53 123 -161q18 -84 -15 -170q-35 -86 -114 -160q-135 -123 -367 -205q8 -35 19.5 -64.5t27.5 -52.5q43 -57 115 -69q88 -12 180 35q43 23 63.5 43t24.5 30 q12 41 49 60.5t78 7.5t60.5 -49t7.5 -78q-16 -59 -66.5 -110.5t-124.5 -88.5q-119 -57 -237 -57q-16 0 -32 1t-32 3q-160 25 -252 152q-55 76 -80 184q-33 2 -58.5 22.5t-33.5 53.5zM330 608q92 37 147 73t86 64q47 43 61.5 78t8.5 56q-4 18 -20.5 28.5t-39.5 10.5 q-8 -1 -24 -5q-90 -18 -146.5 -98t-72.5 -207zM358 1298q0 41 41 76l205 172q41 33 82 26t65.5 -36t24.5 -71t-41 -74l-205 -172q-41 -35 -81.5 -27t-65.5 36.5t-25 69.5z" />
<glyph unicode="&#xea;" horiz-adv-x="1013" d="M47 414q8 -33 33.5 -53.5t58.5 -22.5q25 -109 80 -184q92 -127 252 -152q16 -2 31.5 -3t32.5 -1q119 0 237 57q74 37 124 88.5t67 110.5q12 41 -7.5 78t-60.5 49t-78 -7.5t-49 -60.5q-4 -10 -24.5 -30.5t-63.5 -42.5q-92 -47 -180 -35q-72 12 -115 69q-16 23 -27.5 52.5 t-19.5 64.5q231 82 367 205q80 74 114 160q33 86 15 170q-25 109 -123 161q-94 51 -205 27q-80 -16 -149.5 -62t-118.5 -116q-55 -78 -85 -176t-32 -221h-2q-41 -10 -61.5 -47t-10.5 -78zM201 1282q0 37 19.5 62.5t45.5 52.5l82 78q43 41 79 71.5t38 32.5q29 27 68.5 27 t68.5 -27l248 -223q31 -29 34 -71t-26 -73q-31 -34 -78 -34q-37 0 -67 26l-181 162q-47 -43 -86.5 -81t-54.5 -54q-14 -23 -36.5 -37t-51.5 -14q-43 0 -72.5 30.5t-29.5 71.5zM330 608q16 127 72.5 207t146.5 98q16 4 24 5q23 0 39.5 -10.5t20.5 -28.5q6 -20 -8.5 -55.5 t-61.5 -78.5q-31 -29 -86 -64.5t-147 -72.5z" />
<glyph unicode="&#xeb;" horiz-adv-x="1013" d="M47 414q-10 41 10.5 77.5t61.5 47.5h2q2 123 31.5 221t85.5 176q49 70 118.5 116t149.5 62q111 25 205 -27q98 -53 123 -161q18 -84 -15 -170q-35 -86 -114 -160q-135 -123 -367 -205q8 -35 19.5 -64.5t27.5 -52.5q43 -57 115 -69q88 -12 180 35q43 23 63.5 43t24.5 30 q12 41 49 60.5t78 7.5t60.5 -49t7.5 -78q-16 -59 -66.5 -110.5t-124.5 -88.5q-119 -57 -237 -57q-16 0 -32 1t-32 3q-160 25 -252 152q-55 76 -80 184q-33 2 -58.5 22.5t-33.5 53.5zM207 1329q0 45 30.5 76t73.5 31q45 0 76 -31t31 -76q0 -43 -31 -73.5t-76 -30.5 q-43 0 -73.5 30.5t-30.5 73.5zM330 608q92 37 147 73t86 64q47 43 61.5 78t8.5 56q-4 18 -20.5 28.5t-39.5 10.5q-8 -1 -24 -5q-90 -18 -146.5 -98t-72.5 -207zM596 1329q0 45 30.5 76t73.5 31q45 0 76 -31t31 -76q0 -43 -31 -73.5t-76 -30.5q-43 0 -73.5 30.5t-30.5 73.5z " />
<glyph unicode="&#xec;" horiz-adv-x="530" d="M-8 1424.5q0 41.5 24.5 70.5t65.5 36t82 -26l205 -172q41 -35 41 -75.5t-25 -69.5t-65.5 -37t-81.5 27l-205 172q-41 33 -41 74.5zM254 922q-2 43 27.5 73.5t72.5 32.5q41 2 72 -27.5t33 -70.5l28 -887q2 -43 -27.5 -73.5t-70.5 -32.5h-4q-41 0 -70.5 29.5t-31.5 70.5z " />
<glyph unicode="&#xed;" horiz-adv-x="479" d="M55 922q-2 43 28 73.5t73 32.5q41 2 71.5 -27.5t32.5 -70.5l29 -887q2 -43 -28 -73.5t-71 -32.5h-4q-41 0 -70.5 29.5t-31.5 70.5zM59 1257.5q0 40.5 41 75.5l205 172q41 33 82 26t65.5 -36t24.5 -71t-41 -74l-205 -172q-41 -35 -81.5 -27t-65.5 37t-25 69.5z" />
<glyph unicode="&#xee;" horiz-adv-x="671" d="M-2 1200q0 37 19.5 62.5t45.5 52.5l82 78q43 41 79 71.5t38 32.5q29 27 69 27t68 -27l248 -223q31 -29 34 -71t-26 -73q-30 -34 -77 -34q-37 0 -68 26l-180 162q-47 -43 -87 -81t-55 -54q-14 -23 -36.5 -37t-51.5 -14q-43 0 -72.5 30.5t-29.5 71.5zM233 922l29 -885 q2 -41 32 -70.5t71 -29.5h4q41 2 70.5 32.5t27.5 73.5l-29 887q-2 41 -32.5 70.5t-71.5 27.5q-43 -2 -73 -32.5t-28 -73.5z" />
<glyph unicode="&#xef;" horiz-adv-x="598" d="M0 1329q0 45 30.5 76t73.5 31q45 0 76 -31t31 -76q0 -43 -31 -73.5t-76 -30.5q-43 0 -73.5 30.5t-30.5 73.5zM188 922q-2 43 28 73.5t73 32.5q41 2 71.5 -27.5t32.5 -70.5l29 -887q2 -43 -27.5 -73.5t-70.5 -32.5h-5q-41 0 -70.5 29.5t-31.5 70.5zM389 1329q0 45 31 76 t74 31q45 0 75.5 -31t30.5 -76q0 -43 -30.5 -73.5t-75.5 -30.5q-43 0 -74 30.5t-31 73.5z" />
<glyph unicode="&#xf0;" horiz-adv-x="1050" d="M70 406q4 86 32 159q16 41 38 76t50 66q63 68 146 100q84 39 188 39q41 0 70 -27.5t33 -68.5q68 -10 123 -33q-45 205 -164 354q-16 20 -32.5 38.5t-33.5 35.5l-108 -103q-14 -16 -33 -22t-37 -6q-47 0 -74 30q-31 31 -29.5 74t31.5 72l78 74q-45 23 -78.5 32t-50.5 13 q-41 8 -65.5 42.5t-14.5 75.5q8 43 43 67t76 15q125 -25 246 -96l74 70q31 29 73.5 27.5t71.5 -29.5q29 -31 28 -74t-32 -72l-51 -49q23 -23 42 -44t38 -44q59 -76 104 -163t74 -187q68 -215 57 -483q-4 -106 -55 -195q-57 -92 -166 -147q-100 -47 -225 -48h-27 q-131 6 -211 50.5t-121 89.5q-53 59 -81.5 133t-26.5 158zM274 401q0 -39 12.5 -76.5t41 -68.5t76 -52.5t114.5 -23.5q84 -4 144.5 21.5t89.5 74.5q23 39 26 84v7v2q-2 23 -7 43t-15 41q-57 96 -199 96h-2q-37 0 -65.5 24.5t-34.5 59.5q-88 -23 -133.5 -89.5t-47.5 -142.5z " />
<glyph unicode="&#xf1;" horiz-adv-x="1191" d="M63 987l48 -952q4 -41 30.5 -67.5t65.5 -28.5q2 -2 6 -2q39 0 67.5 24.5t34.5 61.5l7 39q8 38 22 100.5t38 142.5t54 164q72 193 154 299q90 115 178 121q43 4 65.5 -8.5t32.5 -26.5q41 -47 58 -162q12 -104 0 -248q-6 -63 -14.5 -119.5t-15.5 -99.5t-14 -69l-6 -27 q-10 -41 11.5 -77t62.5 -46q16 -4 25 -4q35 0 62.5 21.5t37.5 56.5q0 2 7 30.5t15.5 75.5t17.5 108.5t15 129.5q8 84 7.5 156.5t-9.5 136.5q-20 172 -102 268q-100 121 -270 109q-180 -12 -326 -201q-76 -96 -141 -248l-19 352q-2 41 -33.5 70t-72.5 27q-43 -2 -72 -34 t-27 -73zM284.5 1241q-16.5 39 0.5 78q2 4 15 32.5t36 65.5q78 127 168 139q29 4 69.5 -2t83.5 -41q25 -18 43.5 -39.5t34.5 -41.5q8 -10 18.5 -22.5t18.5 -20.5q8 4 17.5 15t19.5 30q14 27 20 43q4 10 7 20q10 41 47 62.5t78 11.5t62 -46t11 -77q-2 -10 -15 -48t-41 -83 t-72 -84t-109 -49q-27 -4 -67 2t-81 39q-23 18 -40 38.5t-34 41.5q-8 10 -18 22t-20 21q-14 -16 -32 -47t-30 -60t-38.5 -46t-55.5 -17q-23 0 -39 8q-41 16 -57.5 55z" />
<glyph unicode="&#xf2;" horiz-adv-x="1140" d="M57 475q-4 109 27 220.5t93.5 204.5t156.5 158.5t215 82.5q41 6 72.5 -16.5t42.5 -61.5q102 10 182 -23q94 -32 160 -120q86 -115 90 -289q2 -78 -16.5 -159t-53.5 -153q-72 -141 -195 -227q-141 -94 -315 -94h-6q-209 10 -336 158q-106 129 -117 319zM262 485 q2 -31 11.5 -77t36 -90t76.5 -77.5t132 -37.5q72 0 126 22.5t93 53t65 66.5t40 65q25 49 37 103t12 106.5t-12.5 98.5t-36.5 81q-61 78 -183 57q-41 -8 -73.5 13.5t-42.5 62.5q-70 -18 -123 -64.5t-89 -108t-54.5 -133t-14.5 -141.5zM360 1465.5q0 41.5 25 70.5t66 36 t81 -26l205 -172q41 -35 41 -76t-24.5 -69.5t-65.5 -36.5t-82 27l-205 172q-41 33 -41 74.5z" />
<glyph unicode="&#xf3;" horiz-adv-x="1140" d="M57 475q-4 109 27 220.5t93.5 204.5t156.5 158.5t215 82.5q41 6 72.5 -16.5t42.5 -61.5q102 10 182 -23q94 -32 160 -120q86 -115 90 -289q2 -78 -16.5 -159t-53.5 -153q-72 -141 -195 -227q-141 -94 -315 -94h-6q-209 10 -336 158q-106 129 -117 319zM262 485 q2 -31 11.5 -77t36 -90t76.5 -77.5t132 -37.5q72 0 126 22.5t93 53t65 66.5t40 65q25 49 37 103t12 106.5t-12.5 98.5t-36.5 81q-61 78 -183 57q-41 -8 -73.5 13.5t-42.5 62.5q-70 -18 -123 -64.5t-89 -108t-54.5 -133t-14.5 -141.5zM401 1298q0 41 41 76l205 172 q41 33 82 26t65.5 -36t24.5 -71t-41 -74l-205 -172q-41 -35 -81.5 -27t-65.5 36.5t-25 69.5z" />
<glyph unicode="&#xf4;" horiz-adv-x="1140" d="M57 475q10 -190 117 -319q127 -147 336 -158h6q174 0 315 94q123 86 195 227q35 72 53.5 153t16.5 159q-4 174 -90 289q-66 88 -160 120q-80 33 -182 23q-10 39 -42 61.5t-73 16.5q-121 -16 -215 -82t-156.5 -159t-93.5 -204.5t-27 -220.5zM262 485q-4 70 14.5 141.5 t54.5 133t89 107.5t123 65q10 -41 42.5 -62.5t73.5 -13.5q121 20 183 -57q25 -35 37 -81t12 -98.5t-12 -106.5t-37 -103q-14 -29 -40 -65t-65 -66.5t-93 -53t-126 -22.5q-82 4 -132 37.5t-76.5 77.5t-36 90.5t-11.5 76.5zM264 1282q0 37 19.5 62.5t46.5 52.5l82 78 q43 41 78.5 71.5t37.5 32.5q29 27 69 27t69 -27l247 -223q31 -29 34 -71t-25 -73q-31 -34 -78 -34q-37 0 -68 26l-180 162q-47 -43 -87 -81t-54 -54q-14 -23 -37 -37t-51 -14q-43 0 -73 30.5t-30 71.5z" />
<glyph unicode="&#xf5;" horiz-adv-x="1140" d="M57 475q10 -190 117 -319q127 -147 336 -158h6q174 0 315 94q123 86 195 227q35 72 53.5 153t16.5 159q-4 174 -90 289q-66 88 -160 120q-80 33 -182 23q-10 39 -42 61.5t-73 16.5q-121 -16 -215 -82t-156.5 -159t-93.5 -204.5t-27 -220.5zM239.5 1241q-16.5 39 0.5 78 q2 4 15 32.5t36 65.5q78 127 168 139q29 4 69.5 -2t83.5 -41q25 -18 43.5 -39.5t34.5 -41.5q8 -10 18.5 -22.5t18.5 -20.5q8 4 17.5 15t19.5 30q14 27 20 43q4 10 7 20q10 41 46.5 62.5t77.5 11.5t62.5 -46t11.5 -77q-2 -10 -15 -48t-41 -83t-72 -84t-109 -49q-27 -4 -67 2 t-81 39q-23 18 -40 38.5t-34 41.5q-8 10 -18 22t-20 21q-14 -16 -32 -47t-30 -60t-38.5 -46t-55.5 -17q-23 0 -39 8q-41 16 -57.5 55zM262 485q-4 70 14.5 141.5t54.5 133t89 107.5t123 65q10 -41 42.5 -62.5t73.5 -13.5q121 20 183 -57q25 -35 37 -81t12 -98.5t-12 -106.5 t-37 -103q-14 -29 -40 -65t-65 -66.5t-93 -53t-126 -22.5q-82 4 -132 37.5t-76.5 77.5t-36 90.5t-11.5 76.5z" />
<glyph unicode="&#xf6;" horiz-adv-x="1140" d="M57 475q-4 109 27 220.5t93.5 204.5t156.5 158.5t215 82.5q41 6 72.5 -16.5t42.5 -61.5q102 10 182 -23q94 -32 160 -120q86 -115 90 -289q2 -78 -16.5 -159t-53.5 -153q-72 -141 -195 -227q-141 -94 -315 -94h-6q-209 10 -336 158q-106 129 -117 319zM262 485 q2 -31 11.5 -77t36 -90t76.5 -77.5t132 -37.5q72 0 126 22.5t93 53t65 66.5t40 65q25 49 37 103t12 106.5t-12.5 98.5t-36.5 81q-61 78 -183 57q-41 -8 -73.5 13.5t-42.5 62.5q-70 -18 -123 -64.5t-89 -108t-54.5 -133t-14.5 -141.5zM270 1329q0 45 31 76t74 31 q45 0 75.5 -31t30.5 -76q0 -43 -30.5 -73.5t-75.5 -30.5q-43 0 -74 30.5t-31 73.5zM659 1329q0 45 31 76t74 31q45 0 75.5 -31t30.5 -76q0 -43 -30.5 -73.5t-75.5 -30.5q-43 0 -74 30.5t-31 73.5z" />
<glyph unicode="&#xf8;" horiz-adv-x="1140" d="M4 49q-6 41 29 80l90 100q-59 106 -66 246q-4 109 27 220.5t93.5 204.5t156.5 158.5t215 82.5q41 6 72.5 -16.5t42.5 -61.5q102 10 182 -23l4 -2l72 80q35 39 76.5 38t69.5 -26.5t34 -66.5t-29 -80l-63 -70q41 -57 62.5 -128.5t23.5 -153.5q2 -78 -16.5 -159t-53.5 -153 q-72 -141 -195 -227q-141 -94 -315 -94h-6q-147 6 -252 80l-74 -84q-35 -39 -76.5 -38t-69.5 26.5t-34 66.5zM262 485q0 -37 12 -86l416 461l-31 -4q-41 -8 -73.5 13.5t-42.5 62.5q-70 -18 -123 -64.5t-89 -108t-54.5 -133t-14.5 -141.5zM399 233q23 -12 52.5 -20t66.5 -10 q72 0 126 22.5t93 53t65 66.5t40 65q41 86 47 179t-23 165z" />
<glyph unicode="&#xf9;" horiz-adv-x="1191" d="M56.5 513q-1.5 73 6.5 157q6 70 15.5 131t18.5 108t15.5 76t6.5 31q10 41 47 63.5t78 12.5t62.5 -47t10.5 -78l-6 -27t-13 -70t-15.5 -99t-14.5 -120q-12 -145 0 -250q16 -115 58 -161q10 -14 32.5 -26.5t65.5 -8.5q88 6 174 106.5t160 284.5q31 78 53.5 151.5t36.5 132 t22 94.5l9 36q6 39 36.5 63.5t69.5 20.5q39 -2 65.5 -30t30.5 -67l47 -952q2 -43 -26.5 -73.5t-71.5 -34.5h-4q-41 0 -70.5 28.5t-31.5 69.5l-19 387q-70 -143 -143 -234q-145 -176 -322 -188q-8 0 -15 -1t-15 -1q-145 0 -242 108q-82 100 -102 271q-8 63 -9.5 136z M346 1424.5q0 41.5 24.5 70.5t65.5 36t82 -26l205 -172q41 -35 41 -75.5t-24.5 -69.5t-65.5 -37t-82 27l-205 172q-41 33 -41 74.5z" />
<glyph unicode="&#xfa;" horiz-adv-x="1191" d="M56.5 513q-1.5 73 6.5 157q6 70 15.5 131t18.5 108t15.5 76t6.5 31q10 41 47 63.5t78 12.5t62.5 -47t10.5 -78l-6 -27t-13 -70t-15.5 -99t-14.5 -120q-12 -145 0 -250q16 -115 58 -161q10 -14 32.5 -26.5t65.5 -8.5q88 6 174 106.5t160 284.5q31 78 53.5 151.5t36.5 132 t22 94.5l9 36q6 39 36.5 63.5t69.5 20.5q39 -2 65.5 -30t30.5 -67l47 -952q2 -43 -26.5 -73.5t-71.5 -34.5h-4q-41 0 -70.5 28.5t-31.5 69.5l-19 387q-70 -143 -143 -234q-145 -176 -322 -188q-8 0 -15 -1t-15 -1q-145 0 -242 108q-82 100 -102 271q-8 63 -9.5 136z M449 1257.5q0 40.5 40 75.5l205 172q41 33 82 26t65.5 -36t24.5 -71t-41 -74l-204 -172q-41 -35 -82 -27t-65.5 37t-24.5 69.5z" />
<glyph unicode="&#xfb;" horiz-adv-x="1191" d="M56 513q1 -73 10 -136q20 -170 102 -271q96 -109 242 -108q8 0 15 1t15 1q176 12 322 188q74 90 143 234l19 -387q2 -41 31.5 -69.5t70.5 -28.5h4q43 4 71.5 34.5t26.5 73.5l-47 952q-4 39 -30.5 67t-65.5 30q-39 4 -69.5 -20.5t-36.5 -63.5l-9 -36q-8 -36 -22 -94.5 t-37 -132t-53 -151.5q-74 -184 -160 -284.5t-174 -106.5q-43 -4 -65.5 8t-32.5 27q-41 47 -58 161q-12 104 0 250q6 63 14.5 119.5t15.5 99.5t13 70l6 27q10 41 -11 77.5t-62 47.5q-41 10 -78 -12.5t-47 -63.5q0 -2 -6.5 -31t-15.5 -76t-18 -108.5t-16 -130.5 q-8 -84 -7 -157zM268 1262q0 37 19.5 62.5t46.5 51.5l82 78q43 41 78.5 71.5t37.5 33.5q29 27 69 26.5t69 -26.5l248 -224q31 -29 33.5 -70.5t-25.5 -72.5q-31 -35 -78 -35q-37 0 -68 27l-180 162q-47 -43 -87 -81t-54 -55q-14 -23 -37 -37t-51 -14q-43 0 -73 31t-30 72z " />
<glyph unicode="&#xfc;" horiz-adv-x="1191" d="M56.5 513q-1.5 73 6.5 157q6 70 15.5 131t18.5 108t15.5 76t6.5 31q10 41 47 63.5t78 12.5t62.5 -47t10.5 -78l-6 -27t-13 -70t-15.5 -99t-14.5 -120q-12 -145 0 -250q16 -115 58 -161q10 -14 32.5 -26.5t65.5 -8.5q88 6 174 106.5t160 284.5q31 78 53.5 151.5t36.5 132 t22 94.5l9 36q6 39 36.5 63.5t69.5 20.5q39 -2 65.5 -30t30.5 -67l47 -952q2 -43 -26.5 -73.5t-71.5 -34.5h-4q-41 0 -70.5 28.5t-31.5 69.5l-19 387q-70 -143 -143 -234q-145 -176 -322 -188q-8 0 -15 -1t-15 -1q-145 0 -242 108q-82 100 -102 271q-8 63 -9.5 136z M295 1329q0 45 30.5 76t73.5 31q45 0 76 -31t31 -76q0 -43 -31 -73.5t-76 -30.5q-43 0 -73.5 30.5t-30.5 73.5zM684 1329q0 45 30.5 76t73.5 31q45 0 76 -31t31 -76q0 -43 -31 -73.5t-76 -30.5q-43 0 -73.5 30.5t-30.5 73.5z" />
<glyph unicode="&#xfd;" horiz-adv-x="1148" d="M14.5 513q-0.5 73 5.5 157q6 70 15.5 131t18.5 108t16.5 76t7.5 31q10 41 46 62.5t77 11.5t63.5 -46t11.5 -77l-6 -27t-14 -70t-16.5 -100t-14.5 -121q-12 -143 0 -248q14 -111 58 -161q12 -14 33.5 -26.5t64.5 -8.5q90 6 175 106.5t159 284.5q31 78 53.5 151.5t37.5 132 t22 94.5l8 36q6 39 36.5 63.5t71.5 20.5q39 -4 65.5 -32t28.5 -67l47 -1779q2 -43 -27.5 -74t-70.5 -31h-4q-41 0 -70.5 29t-31.5 69l-31 1186q-31 -61 -63.5 -113.5t-67.5 -93.5q-141 -176 -322 -188q-10 -2 -30 -2q-150 0 -242 108q-80 96 -102 271q-8 63 -8.5 136z M449 1257.5q0 40.5 40 75.5l205 172q41 33 82 26t65.5 -36t24.5 -71t-41 -74l-204 -172q-41 -35 -82 -27t-65.5 37t-24.5 69.5z" />
<glyph unicode="&#xfe;" horiz-adv-x="1024" d="M35 1440q-2 41 27.5 71.5t72.5 32.5q41 2 72 -27.5t33 -72.5l4 -631q119 109 231 164q109 53 188.5 55t129.5 -14q92 -29 147 -103q27 -35 42 -75.5t22 -87.5q8 -70 -7.5 -147t-51.5 -152.5t-89 -147.5t-121 -131q-61 -53 -128.5 -92t-139.5 -62q-47 -14 -91 -21t-91 -7 h-19l21 -776q2 -41 -28 -72t-71 -33h-4q-41 0 -70.5 29t-31.5 69zM252 528l8 -329q57 -4 109.5 8t95.5 31.5t76.5 44.5t58.5 45q49 43 88 94t65.5 104.5t39 105.5t6.5 97q-2 23 -15.5 52.5t-52.5 41.5q-66 20 -166 -30q-70 -35 -147.5 -98.5t-155.5 -155.5q-4 -4 -5 -6.5 t-5 -4.5z" />
<glyph unicode="&#xff;" horiz-adv-x="1148" d="M14.5 513q-0.5 73 5.5 157q6 70 15.5 131t18.5 108t16.5 76t7.5 31q10 41 46 62.5t77 11.5t63.5 -46t11.5 -77l-6 -27t-14 -70t-16.5 -100t-14.5 -121q-12 -143 0 -248q14 -111 58 -161q12 -14 33.5 -26.5t64.5 -8.5q90 6 175 106.5t159 284.5q31 78 53.5 151.5t37.5 132 t22 94.5l8 36q6 39 36.5 63.5t71.5 20.5q39 -4 65.5 -32t28.5 -67l47 -1779q2 -43 -27.5 -74t-70.5 -31h-4q-41 0 -70.5 29t-31.5 69l-31 1186q-31 -61 -63.5 -113.5t-67.5 -93.5q-141 -176 -322 -188q-10 -2 -30 -2q-150 0 -242 108q-80 96 -102 271q-8 63 -8.5 136z M274 1329q0 45 31 76t74 31q45 0 75.5 -31t30.5 -76q0 -43 -30.5 -73.5t-75.5 -30.5q-43 0 -74 30.5t-31 73.5zM664 1329q0 45 30.5 76t73.5 31q45 0 75.5 -31t30.5 -76q0 -43 -30.5 -73.5t-75.5 -30.5q-43 0 -73.5 30.5t-30.5 73.5z" />
<glyph unicode="&#x152;" horiz-adv-x="2396" d="M82 561q-8 170 43 342t151 320q111 166 263.5 266t328.5 125q41 6 76 -19.5t41 -66.5q4 -43 -21.5 -77t-66.5 -40q-141 -20 -257 -104t-197 -203t-121.5 -259t-34.5 -274q2 -59 19.5 -132.5t62.5 -139.5t125.5 -114t210.5 -54q104 0 185 26.5t141.5 66.5t102.5 88t70 94 l-2 116q-6 -2 -14 -2q-39 0 -67.5 24.5t-35.5 63.5q-6 41 19.5 76t69.5 41l24 4l-6 324q-45 43 -98.5 60t-110.5 16t-112.5 -15t-104.5 -33q-41 -16 -79 0.5t-54 55.5q-16 41 0 78.5t55 54.5q102 41 186 55t156 8q-2 6 -2 17q-4 43 22.5 75.5t69.5 36.5l998 94 q43 4 75.5 -23.5t36.5 -68.5q4 -43 -23.5 -75.5t-68.5 -36.5l-745 -70l10 -524l590 84q41 6 74.5 -19.5t39.5 -66.5t-19.5 -76t-66.5 -41l-614 -88l8 -428l801 63q41 4 73.5 -23.5t37.5 -70.5q4 -41 -25 -73.5t-70 -36.5l-1073 -84h-8q-41 0 -69.5 26.5t-32.5 67.5v8 q-23 -10 -44.5 -18.5t-43.5 -16.5q-119 -39 -259 -39h-6q-143 6 -262 60q-111 51 -192 145q-147 170 -160 430z" />
<glyph unicode="&#x153;" horiz-adv-x="1781" d="M57 475q-4 109 27 220.5t93.5 204.5t156.5 158.5t215 82.5q41 6 72.5 -16.5t42.5 -61.5q102 10 182 -23q90 -35 153 -112l7 8q49 70 118.5 116t149.5 62q111 25 205 -27q98 -53 123 -161q18 -84 -15 -170q-35 -86 -114 -160q-135 -123 -367 -205q8 -35 19.5 -64.5 t27.5 -52.5q43 -57 115 -69q88 -12 180 35q43 23 63.5 43t24.5 30q12 41 49 60.5t78 7.5t60.5 -49t7.5 -78q-16 -59 -66.5 -110.5t-124.5 -88.5q-119 -57 -237 -57q-16 0 -32 1t-32 3q-160 25 -252 152q-10 12 -17 25.5t-16 27.5q-57 -70 -123 -115q-141 -94 -315 -94h-6 q-209 10 -336 158q-106 129 -117 319zM262 485q2 -31 11.5 -77t36 -90t76.5 -77.5t132 -37.5q63 0 113.5 18.5t88.5 44t64.5 57t42.5 60.5q-10 17 -12 31q-10 41 9.5 75.5t58.5 47.5q12 76 3 145.5t-44 116.5q-61 78 -183 57q-41 -8 -73.5 13.5t-42.5 62.5 q-70 -18 -123 -64.5t-89 -108t-54.5 -133t-14.5 -141.5zM1098 608q92 37 147 73t86 64q47 43 61.5 78t8.5 56q-4 18 -20.5 28.5t-39.5 10.5q-8 -1 -24 -5q-90 -18 -146.5 -98t-72.5 -207z" />
<glyph unicode="&#x178;" horiz-adv-x="1300" d="M39 481q-2 88 8 191.5t33 220.5q18 98 38.5 186t39 156t31 107.5t12.5 43.5q14 41 51 59.5t78 6.5t60.5 -50t4.5 -79q0 -2 -11 -40t-28.5 -102.5t-38 -148.5t-36.5 -176q-29 -156 -35 -266.5t0 -185t20.5 -117.5t28.5 -66q31 -49 84 -55q16 -2 39.5 2t58.5 31 q88 68 172 250t156 462q27 111 47 212.5t34.5 180t20.5 126.5l6 47q6 41 36 66.5t71 23.5t68.5 -30t29.5 -69l90 -1818q4 -43 -25.5 -74t-70.5 -35h-6q-41 0 -69.5 29t-32.5 70l-52 1040q-25 -80 -49 -150.5t-53 -134.5q-111 -254 -248 -358q-96 -76 -209 -76h-20.5t-20.5 2 q-150 18 -231 148q-82 131 -82 370zM350 1739q0 45 31 75.5t74 30.5q45 0 75.5 -30.5t30.5 -75.5q0 -43 -30.5 -74t-75.5 -31q-43 0 -74 31t-31 74zM739 1739q0 45 31 75.5t74 30.5q45 0 75.5 -30.5t30.5 -75.5q0 -43 -30.5 -74t-75.5 -31q-43 0 -74 31t-31 74z" />
<glyph unicode="&#x2c6;" horiz-adv-x="743" d="M27 1200q0 37 19.5 62.5t45.5 52.5l82 78q43 41 79 71.5t38 32.5q29 27 68.5 27t68.5 -27l248 -223q31 -29 34 -71t-26 -73q-31 -34 -78 -34q-37 0 -67 26l-181 162q-47 -43 -87 -81t-54 -54q-14 -23 -36.5 -37t-51.5 -14q-43 0 -72.5 30.5t-29.5 71.5z" />
<glyph unicode="&#x2dc;" horiz-adv-x="835" d="M45 1179.5q-16 39.5 0 77.5q2 4 15.5 33t35.5 66q78 127 168 139q29 4 70 -2t84 -41q25 -18 43 -39.5t35 -42.5l18 -22.5t18 -20.5q8 4 17.5 15.5t19.5 29.5q14 27 21 43q4 10 6 21q10 41 47 62.5t78 10.5q41 -10 62.5 -46t11.5 -77q-2 -10 -15.5 -48t-41 -83 t-71.5 -83.5t-110 -49.5q-27 -4 -66.5 2t-80.5 39q-23 18 -40.5 39t-33.5 41q-8 10 -18.5 22.5t-20.5 20.5q-14 -16 -31.5 -47t-29.5 -59q-12 -29 -39 -46.5t-56 -17.5q-23 0 -39 8q-41 16 -57 55.5z" />
<glyph unicode="&#x2000;" horiz-adv-x="1078" />
<glyph unicode="&#x2001;" horiz-adv-x="2157" />
<glyph unicode="&#x2002;" horiz-adv-x="1078" />
<glyph unicode="&#x2003;" horiz-adv-x="2157" />
<glyph unicode="&#x2004;" horiz-adv-x="719" />
<glyph unicode="&#x2005;" horiz-adv-x="539" />
<glyph unicode="&#x2006;" horiz-adv-x="359" />
<glyph unicode="&#x2007;" horiz-adv-x="359" />
<glyph unicode="&#x2008;" horiz-adv-x="269" />
<glyph unicode="&#x2009;" horiz-adv-x="431" />
<glyph unicode="&#x200a;" horiz-adv-x="119" />
<glyph unicode="&#x2010;" horiz-adv-x="909" d="M102 567q-2 39 23 72t78 37l495 26q53 2 82 -27.5t31 -68.5t-22.5 -72.5t-77.5 -35.5l-496 -27q-53 -4 -82 26.5t-31 69.5z" />
<glyph unicode="&#x2011;" horiz-adv-x="909" d="M102 567q-2 39 23 72t78 37l495 26q53 2 82 -27.5t31 -68.5t-22.5 -72.5t-77.5 -35.5l-496 -27q-53 -4 -82 26.5t-31 69.5z" />
<glyph unicode="&#x2012;" horiz-adv-x="909" d="M102 567q-2 39 23 72t78 37l495 26q53 2 82 -27.5t31 -68.5t-22.5 -72.5t-77.5 -35.5l-496 -27q-53 -4 -82 26.5t-31 69.5z" />
<glyph unicode="&#x2013;" horiz-adv-x="1222" d="M101 567q-3 39 33.5 72t112.5 37l715 26q76 2 118 -27.5t45 -68.5t-32.5 -72.5t-112.5 -35.5l-716 -27q-76 -4 -118 26.5t-45 69.5z" />
<glyph unicode="&#x2014;" horiz-adv-x="2246" d="M101.5 567q-5.5 39 66.5 72t225 37l1429 26q153 2 237 -27.5t89.5 -68.5t-65 -72.5t-223.5 -35.5l-1432 -27q-153 -4 -237 26.5t-89.5 69.5z" />
<glyph unicode="&#x202f;" horiz-adv-x="431" />
<glyph unicode="&#x205f;" horiz-adv-x="539" />
<glyph unicode="&#x20ac;" horiz-adv-x="1636" d="M77 829.5q-3 38.5 20.5 72.5t76.5 38l731 57q53 4 82 -26.5t32 -68.5t-20.5 -71.5t-76.5 -37.5l-732 -58q-53 -4 -81.5 26t-31.5 68.5zM83 503q-3 38 20.5 72.5t76.5 38.5l752 68q53 4 81.5 -25.5t32 -67.5t-20.5 -73t-77 -39l-751 -67q-53 -4 -82 25.5t-32 67.5z M315 553q12 154 68 309q59 164 152.5 302.5t209.5 230.5q154 123 322 141q190 23 367 -92q37 -23 46 -65t-14 -76q-23 -35 -64.5 -44.5t-76.5 13.5q-225 141 -453 -37q-92 -74 -169.5 -189.5t-127.5 -250.5q-47 -133 -55 -256t23 -211q57 -166 262 -166q223 2 412 274 q37 53 64.5 105.5t46 92.5t28.5 66l10 25q14 41 51 59t78 4t59.5 -51t4.5 -78q0 -4 -11.5 -33.5t-33 -76.5t-54.5 -106.5t-76 -123.5q-104 -152 -229 -241q-164 -119 -348 -121h-6q-166 0 -289 82q-111 78 -162 219q-47 131 -35 295z" />
<glyph unicode="&#x25fc;" horiz-adv-x="1157" d="M0 0v1157h1157v-1157h-1157z" />
</font>
</defs>
</svg>
